<svg xmlns="http://www.w3.org/2000/svg" width="872.5252" height="1028.2284" viewBox="0 0 872.5252 1028.2284"><defs><style>.cls-1{fill:#d2e1f3;}.cls-1,.cls-2,.cls-3{fill-rule:evenodd;}.cls-2{fill:#242b66;}.cls-3{fill:#4167b1;}.cls-4,.cls-6{fill:none;}.cls-4{stroke:#3553a4;}.cls-4,.cls-5,.cls-6{stroke-miterlimit:10;}.cls-5,.cls-7{fill:#3553a4;}.cls-5{stroke:#eef4fb;}.cls-6{stroke:#fff;}.cls-8,.cls-9{fill:#fff;}.cls-10,.cls-9{font-size:14px;font-family:IBMPlexSans-SemiBold, IBM Plex Sans;font-weight:600;}.cls-10{fill:#273b91;}</style></defs><g id="Background"><polygon class="cls-1" points="773.87 267.107 773.87 267.897 389.93 488.767 6 267.107 389.93 45.437 773.87 267.107"/><polygon class="cls-2" points="389.93 488.767 389.93 932.097 6 710.437 6 267.107 389.93 488.767"/><polygon class="cls-3" points="773.87 267.897 773.87 710.437 389.93 932.097 389.93 488.767 773.87 267.897"/><line class="cls-4" x1="101.9836" y1="322.6231" x2="485.9136" y2="100.9531"/><line class="cls-4" x1="197.9674" y1="378.1379" x2="581.8974" y2="156.4678"/><line class="cls-4" x1="293.9511" y1="433.6526" x2="677.8811" y2="211.9826"/><line class="cls-5" x1="5.9999" y1="355.8003" x2="389.9299" y2="577.4653"/><line class="cls-5" x1="5.9999" y1="532.4013" x2="389.9299" y2="754.0663"/><line class="cls-5" x1="5.9999" y1="444.1008" x2="389.9299" y2="665.7658"/><line class="cls-6" x1="389.9299" y1="577.0678" x2="773.8699" y2="356.1978"/><line class="cls-6" x1="389.9299" y1="665.3683" x2="773.8699" y2="444.4983"/><line class="cls-6" x1="389.9299" y1="753.6688" x2="773.8699" y2="532.7988"/><line class="cls-6" x1="389.9299" y1="841.9692" x2="773.8699" y2="621.0992"/><line class="cls-5" x1="5.9999" y1="620.7017" x2="389.9299" y2="842.3667"/><line class="cls-4" x1="263.9185" y1="104.3368" x2="374.8117" y2="40.3103"/><polygon class="cls-7" points="376.041 45.358 381.026 36.722 371.055 36.722 376.041 45.358"/><line class="cls-4" x1="6.2148" y1="253.1275" x2="113.0229" y2="191.4595"/><polygon class="cls-7" points="9.971 256.716 0 256.716 4.985 248.08 9.971 256.716"/><line class="cls-4" x1="788.7219" y1="417.1781" x2="788.7219" y2="336.0539"/><polygon class="cls-7" points="793.708 337.513 788.722 328.878 783.736 337.513 793.708 337.513"/><line class="cls-4" x1="788.0767" y1="649.9005" x2="788.0767" y2="568.7762"/><polygon class="cls-7" points="793.063 648.441 788.077 657.077 783.09 648.441 793.063 648.441"/><line class="cls-4" x1="697.9971" y1="772.5405" x2="766.2855" y2="733.064"/><polygon class="cls-7" points="767.518 738.111 772.498 729.473 762.527 729.477 767.518 738.111"/><line class="cls-4" x1="428.3358" y1="928.4276" x2="496.6241" y2="888.9511"/><polygon class="cls-7" points="432.094 932.014 422.123 932.019 427.103 923.38 432.094 932.014"/><line class="cls-4" x1="7.0265" y1="749.4407" x2="71.5392" y2="786.3826"/><polygon class="cls-7" points="5.815 754.493 0.799 745.875 10.77 745.839 5.815 754.493"/><line class="cls-4" x1="259.8227" y1="894.1997" x2="324.3354" y2="931.1417"/><polygon class="cls-7" points="320.591 934.744 330.563 934.708 325.547 926.09 320.591 934.744"/><path class="cls-7" d="M384.9524,171.0162l-1.5-2.598a4,4,0,1,0-6.9281,4l1.5,2.598a2.0025,2.0025,0,0,0-.732,2.7321l3,5.1961a2.0025,2.0025,0,0,0,2.732.732l6.9282-4a2.0025,2.0025,0,0,0,.732-2.7321l-3-5.1961A2.0025,2.0025,0,0,0,384.9524,171.0162Zm-6.6961.402a2,2,0,0,1,3.4641-2l1.5,2.598-3.4641,2Zm3.7681,10.5263-3-5.1961,6.9282-4,3.0011,5.1955Z" transform="translate(-148.2567 19.7486)"/><path class="cls-7" d="M385.0577,159.5413a10.0108,10.0108,0,0,0-17.0281,9.82l.0033.01a7.502,7.502,0,0,0,8.5868,12.23l.4406-.2544-1-1.7321-.4371.2524a5.5019,5.5019,0,0,1-6.2979-8.9692l1.046-.8858-.4485-1.295a8.0109,8.0109,0,0,1,13.6235-7.8658l.8972,1.0359,1.29-.463a5.5019,5.5019,0,0,1,4.6224,9.9365l-.44.2538,1,1.732.44-.2538a7.502,7.502,0,0,0-6.2985-13.5511Z" transform="translate(-148.2567 19.7486)"/><path class="cls-7" d="M477.0374,211.6343a.7589.7589,0,0,0,.2777-1.0365l-1.7438-3.02a.7588.7588,0,1,0-1.3229.7436l.0087.0151,1.7439,3.02A.7588.7588,0,0,0,477.0374,211.6343Z" transform="translate(-148.2567 19.7486)"/><path class="cls-7" d="M488.3382,213.8916a9.7327,9.7327,0,0,0-13.8989,12.5151,6.75,6.75,0,0,0,7.3492,11.3008l13.8562-8a8.7465,8.7465,0,0,0-7.3065-15.8156Zm6.5565,14.5166-13.8563,8a5.2373,5.2373,0,0,1-5.82-8.6823,9.7284,9.7284,0,0,0,2.8477,2.7251.75.75,0,0,0,.8226-1.2544l-.0328-.02a8.25,8.25,0,0,1,7.8309-14.489,8.7539,8.7539,0,0,0-3.9939,5.7123.75.75,0,1,0,1.4636.3285l.0064-.0315a7.25,7.25,0,1,1,10.7322,7.7114Z" transform="translate(-148.2567 19.7486)"/><path class="cls-7" d="M492.9779,207.2923a.7581.7581,0,0,0-1.0358.2769l0,.0009-1.7434,3.02a.7586.7586,0,1,0,1.2962.7887l.0173-.03,1.7435-3.02A.759.759,0,0,0,492.9779,207.2923Z" transform="translate(-148.2567 19.7486)"/><path class="cls-7" d="M483.7992,209.8381a.7583.7583,0,0,0,.7587-.7579v-.0008l0-3.4873a.7587.7587,0,0,0-1.5173,0l0,3.4873A.7588.7588,0,0,0,483.7992,209.8381Z" transform="translate(-148.2567 19.7486)"/><path class="cls-7" d="M471.1991,216.7922a.7587.7587,0,0,0,.7585-1.3141l-3.02-1.7435a.7587.7587,0,0,0-.7684,1.3085l.01.0057Z" transform="translate(-148.2567 19.7486)"/><path class="cls-7" d="M469.6879,222.4323l-3.4873,0a.7587.7587,0,0,0-.0115,1.5173h3.499a.7587.7587,0,1,0,.0114-1.5174h-.0113Z" transform="translate(-148.2567 19.7486)"/><path class="cls-7" d="M582.0806,286.1923l-1.5-2.5981a4,4,0,0,0-6.9282,4l1.5,2.5981a2.0024,2.0024,0,0,0-.732,2.732l3,5.1961a2.0025,2.0025,0,0,0,2.7321.732l6.9281-4a2.0024,2.0024,0,0,0,.732-2.732l-3-5.1961A2.0025,2.0025,0,0,0,582.0806,286.1923Zm-6.6961.402a2,2,0,1,1,3.464-2l1.5,2.5981-3.4641,2Zm3.7681,10.5262-3-5.1961,6.9281-4,3.0011,5.1955Z" transform="translate(-148.2567 19.7486)"/><path class="cls-7" d="M582.1859,274.7174a10.0108,10.0108,0,0,0-17.0281,9.82l.0032.0094a7.502,7.502,0,0,0,8.5868,12.23l.4407-.2544-1-1.732-.437.2523a5.5019,5.5019,0,0,1-6.298-8.9691l1.0461-.8858-.4485-1.295a8.0109,8.0109,0,0,1,13.6235-7.8658l.8971,1.0359,1.29-.4631a5.5019,5.5019,0,0,1,4.6224,9.9366l-.44.2538,1,1.732.44-.2538a7.502,7.502,0,0,0-6.2984-13.5511Z" transform="translate(-148.2567 19.7486)"/><path class="cls-7" d="M567.3783,269.92a.759.759,0,0,0,.2777-1.0366l-1.7438-3.02a.7588.7588,0,0,0-1.3229.7437l.0087.0151,1.7438,3.02A.7589.7589,0,0,0,567.3783,269.92Z" transform="translate(-148.2567 19.7486)"/><path class="cls-7" d="M583.3188,265.5779a.7582.7582,0,0,0-1.0358.277l0,.0008-1.7434,3.02a.7587.7587,0,1,0,1.2962.7888l.0173-.03,1.7434-3.02A.7589.7589,0,0,0,583.3188,265.5779Z" transform="translate(-148.2567 19.7486)"/><path class="cls-7" d="M574.14,268.1237a.7581.7581,0,0,0,.7587-.7578v-.0008l0-3.4873a.7587.7587,0,0,0-1.5173,0l0,3.4873A.7587.7587,0,0,0,574.14,268.1237Z" transform="translate(-148.2567 19.7486)"/><path class="cls-7" d="M561.54,275.0779a.7587.7587,0,0,0,.7585-1.3142l-3.02-1.7434a.7587.7587,0,0,0-.7684,1.3085l.01.0056Z" transform="translate(-148.2567 19.7486)"/><path class="cls-7" d="M560.0288,280.718l-3.4873,0a.7587.7587,0,0,0-.0115,1.5174h3.499a.7587.7587,0,0,0,.0114-1.5174h-.0113Z" transform="translate(-148.2567 19.7486)"/><path class="cls-8" d="M701.8338,520.8588a11.019,11.019,0,0,1-10.4674.27l4.5033-2.6-1-1.732-6.9281,4,4,6.9281,1.7321-1-1.85-3.2043a12.9131,12.9131,0,0,0,11.01-.93Z" transform="translate(-148.2567 19.7486)"/><path class="cls-8" d="M712.824,509.8945l-1-1.732-1.8186,1.05a6.7,6.7,0,0,0-1.5063-1.2088l.549-2.0491-1.9124-.5124-.549,2.0491a4.8425,4.8425,0,0,0-1.9089.2938l-1.05-1.8187-1.732,1,1.05,1.8186a6.7,6.7,0,0,0-1.2088,1.5062l-2.0491-.549-.5124,1.9125,2.0491.549a4.8418,4.8418,0,0,0,.2938,1.9088l-1.8186,1.05,1,1.7321,1.8186-1.05a6.6982,6.6982,0,0,0,1.5063,1.2088l-.5491,2.049,1.9125.5124.549-2.049a4.8418,4.8418,0,0,0,1.9088-.2938l1.05,1.8186,1.732-1-1.05-1.8187a6.7,6.7,0,0,0,1.2088-1.5062l2.049.549.5124-1.9124-2.049-.549a4.842,4.842,0,0,0-.2938-1.9089Zm-5.0621,5.2321a3,3,0,1,1,1.098-4.0981A2.9465,2.9465,0,0,1,707.7619,515.1266Z" transform="translate(-148.2567 19.7486)"/><path class="cls-8" d="M696.7977,504.1364l4.5032-2.6a10.9963,10.9963,0,0,0-14.4934,15.2964l-1.7321,1a12.9962,12.9962,0,0,1,15.7683-18.6882l-1.85-3.2043,1.732-1,4,6.9281-6.9281,4Z" transform="translate(-148.2567 19.7486)"/><path class="cls-8" d="M689.6536,601.3712l-1-1.732-4.33,2.5a2,2,0,0,0-.7321,2.7321l8,13.8563a2,2,0,0,0,2.732.732l13.8563-8a2,2,0,0,0,.732-2.7321l-4.5-7.7941-1.732,1,4.5,7.7941-13.8563,8-8-13.8563" transform="translate(-148.2567 19.7486)"/><path class="cls-8" d="M700.9118,594.871l-6.9281,4-4-6.9281,6.9282-4Zm-12.66-1.928,4,6.9282a2,2,0,0,0,2.7321.732l6.9281-4a2,2,0,0,0,.732-2.7321l-4-6.9281a2,2,0,0,0-2.732-.732l-6.9282,4A2,2,0,0,0,688.2515,592.943Z" transform="translate(-148.2567 19.7486)"/><path class="cls-8" d="M696.9837,604.0673l2,3.464-3.4641,2-2-3.4641,3.464-2m-5.1961,3,2,3.4641a2,2,0,0,0,2.732.732l3.4641-2a2,2,0,0,0,.732-2.7321l-2-3.4641a2,2,0,0,0-2.7321-.732l-3.4641,2A2,2,0,0,0,691.7876,607.0673Z" transform="translate(-148.2567 19.7486)"/><path class="cls-8" d="M708.608,596.201l1,1.7321-1.732,1-1-1.732,1.7321-1m-3.9641,1.1341,2,3.4641a1,1,0,0,0,1.3661.366l3.464-2a1,1,0,0,0,.366-1.366l-2-3.4641a1,1,0,0,0-1.366-.366l-3.4641,2A1,1,0,0,0,704.6439,597.3351Z" transform="translate(-148.2567 19.7486)"/><path class="cls-8" d="M701.0109,694.4112a3.9589,3.9589,0,0,0-1.4664,1.5l-8.9692-2.4031,2.4035-8.9706a3.9519,3.9519,0,0,0,2.032-.5186,4,4,0,1,0-5.4642-1.464,3.9506,3.9506,0,0,0,1.5,1.465l-2.4035,8.9706-8.9691-2.4032a3.9571,3.9571,0,0,0-.52-2.0322,4,4,0,1,0-1.464,5.4641,3.9589,3.9589,0,0,0,1.4664-1.5l8.9692,2.4031-2.4035,8.9706a3.9515,3.9515,0,0,0-2.0319.5186,4,4,0,1,0,5.4641,1.464,3.9513,3.9513,0,0,0-1.5005-1.465l2.4035-8.9706,8.9691,2.4032a3.9577,3.9577,0,0,0,.52,2.0323,4,4,0,1,0,1.464-5.4642Zm-9-15.5883a2,2,0,1,1-.732,2.7321A2,2,0,0,1,692.0107,678.8229Zm-5.32,30.7847a2,2,0,1,1,.732-2.7321A2,2,0,0,1,686.6907,709.6076Z" transform="translate(-148.2567 19.7486)"/><path id="IBM_Security_Shield" data-name="IBM Security Shield" class="cls-8" d="M688.9412,763.6743l-7.4032,11.1771,7.0332,12.1813a12,12,0,1,0,20.7844-12l-7.0331-12.1813Zm19.5722,20.2391-7.6161.4686,1.114,1.93,5.6158-.3455a10.0025,10.0025,0,0,1-17.3239.0666l-6.4173-11.1147,6.1693-9.3143,11.1511-.686,1.875,3.2476-11.1511.6859,1.114,1.9294,11.151-.686,1.8751,3.2476-11.1511.6859,1.114,1.9294,11.151-.686.4394.7609a9.9053,9.9053,0,0,1,1.0231,2.5121l-10.7385.6605,1.114,1.9294,9.9191-.61A10.0243,10.0243,0,0,1,708.5134,783.9134Z" transform="translate(-148.2567 19.7486)"/><rect class="cls-8" x="700.8428" y="416.9519" width="12" height="2" transform="translate(-262.5338 429.1777) rotate(-30.0009)"/><path class="cls-8" d="M695.6634,413.1888a2.9674,2.9674,0,0,0-.3828-1.263,3,3,0,1,0-1.098,4.0981,2.9616,2.9616,0,0,0,.9626-.9031l3.7085.9937,1.293,2.2394,1.732-1-1.7071-2.9567Zm-2.4809,1.103a1,1,0,1,1,.366-1.366A1,1,0,0,1,693.1825,414.2918Z" transform="translate(-148.2567 19.7486)"/><path class="cls-8" d="M703.9407,406.9256a3,3,0,1,0-2.0563,4.4383l2.5924,4.49,1.732-1-2.5921-4.4895A2.9957,2.9957,0,0,0,703.9407,406.9256Zm-2.098,2.3661a1,1,0,1,1,.366-1.366A1,1,0,0,1,701.8427,409.2917Z" transform="translate(-148.2567 19.7486)"/><path class="cls-8" d="M708.5028,400.8275a3.0033,3.0033,0,0,0-1.098,4.0981,2.9669,2.9669,0,0,0,.9024.963L707.1,410.3971l1.7071,2.9567,1.732-1-1.293-2.2395.9936-3.7086a2.9585,2.9585,0,0,0,1.2634-.3821,3,3,0,1,0-3-5.1961Zm2,3.4641a1,1,0,1,1,.366-1.3661A1,1,0,0,1,710.5029,404.2916Z" transform="translate(-148.2567 19.7486)"/><path class="cls-8" d="M704.8788,422.55l-1.732,1,1.293,2.2395-.9934,3.7084a2.9605,2.9605,0,0,0-1.2636.3823,3,3,0,1,0,4.0981,1.098,2.9662,2.9662,0,0,0-.9025-.963l1.2075-4.5085Zm-.696,10.7942a1,1,0,1,1,.366-1.366A1,1,0,0,1,704.1828,433.3442Z" transform="translate(-148.2567 19.7486)"/><path class="cls-8" d="M711.801,424.5394l-2.5921-4.49-1.732,1,2.5921,4.4895a3,3,0,1,0,1.732-1Zm1.042,3.8047a1,1,0,1,1,.366-1.366A1,1,0,0,1,712.843,428.3441Z" transform="translate(-148.2567 19.7486)"/><path class="cls-8" d="M719.5031,419.88a2.9615,2.9615,0,0,0-.9628.9032l-3.7083-.9938-1.293-2.2394-1.732,1,1.707,2.9567,4.5083,1.2084a2.966,2.966,0,0,0,.3828,1.263,3,3,0,1,0,1.098-4.0981Zm2,3.4641a1,1,0,1,1,.366-1.3661A1,1,0,0,1,721.5032,423.344Z" transform="translate(-148.2567 19.7486)"/><path class="cls-7" d="M610.804,372.9477a6.5324,6.5324,0,0,0-7.7812-2.6422,8.9943,8.9943,0,0,0-14.9268,9.3259,6.532,6.532,0,0,0-1.0381,8.1523,6.4542,6.4542,0,0,0,3.737,2.7944,5.9829,5.9829,0,0,0,9.0336,6.3236l9.3289-5.8285a5.9762,5.9762,0,0,0,.4645-9.843A6.505,6.505,0,0,0,610.804,372.9477Zm-2.7063,16.4293-9.3289,5.8285a3.9925,3.9925,0,0,1-4.7722-6.368l.5025-.447-.224-.6337a5.496,5.496,0,0,1,9.0994-5.6851l.4714.4792.6217-.2554a3.9925,3.9925,0,0,1,3.63,7.0815Zm-.4225-9.169-.047.0294a5.9553,5.9553,0,0,0-3.3018-.0082A7.4953,7.4953,0,0,0,592.2,387.8054a5.992,5.992,0,0,0-.6589.892,4.4448,4.4448,0,0,1-2.7878-1.9731,4.5171,4.5171,0,0,1,1.14-5.996l.6577-.4863-.3462-.7411a6.9938,6.9938,0,0,1,11.7747-7.3565l.5138.6364.7254-.3779a4.4975,4.4975,0,0,1,4.4565,7.8055Z" transform="translate(-148.2567 19.7486)"/></g><g id="Text"><text class="cls-9" transform="translate(579.149 432.7462) rotate(-30.0009)">R</text><text class="cls-9" transform="translate(587.0123 428.2067) rotate(-30.0009)">e</text><text class="cls-9" transform="matrix(0.866, -0.5, 0.5, 0.866, 593.7925, 424.2916)">s</text><text class="cls-9" transform="matrix(0.866, -0.5, 0.5, 0.866, 599.8384, 420.8014)">i</text><text class="cls-9" transform="translate(603.19 418.8659) rotate(-30.001)">l</text><text class="cls-9" transform="translate(606.7535 416.8082) rotate(-30.001)">i</text><text class="cls-9" transform="matrix(0.866, -0.5, 0.5, 0.866, 610.0835, 414.8859)">a</text><text class="cls-9" transform="translate(616.8677 410.9689) rotate(-30.001)">n</text><text class="cls-9" transform="matrix(0.866, -0.5, 0.5, 0.866, 623.9976, 406.8522)">c</text><text class="cls-9" transform="matrix(0.866, -0.5, 0.5, 0.866, 630.231, 403.2531)">y</text><text class="cls-9" transform="matrix(0.866, -0.5, 0.5, 0.866, 571.2754, 522.7703)">D</text><text class="cls-9" transform="matrix(0.866, -0.5, 0.5, 0.866, 579.6417, 517.9388)">e</text><text class="cls-9" transform="matrix(0.866, -0.5, 0.5, 0.866, 586.2793, 514.1068)">v</text><text class="cls-9" transform="translate(592.6495 510.429) rotate(-30.0009)">O</text><text class="cls-9" transform="translate(601.2715 505.4505) rotate(-30.0008)">p</text><text class="cls-9" transform="translate(608.5577 501.2435) rotate(-30.0009)">s</text><text class="cls-9" transform="translate(571.2372 615.2764) rotate(-30.0009)">S</text><text class="cls-9" transform="translate(578.6122 611.0176) rotate(-30.0008)">t</text><text class="cls-9" transform="matrix(0.866, -0.5, 0.5, 0.866, 583.0898, 608.4321)">o</text><text class="cls-9" transform="translate(589.9169 604.4907) rotate(-30.0009)">r</text><text class="cls-9" transform="matrix(0.866, -0.5, 0.5, 0.866, 594.5575, 601.8115)">a</text><text class="cls-9" transform="translate(601.3251 597.9048) rotate(-30.0009)">g</text><text class="cls-9" transform="translate(607.8691 594.126) rotate(-30.0008)">e</text><text class="cls-9" transform="matrix(0.866, -0.5, 0.5, 0.866, 560.576, 707.9908)">N</text><text class="cls-9" transform="matrix(0.866, -0.5, 0.5, 0.866, 569.3025, 702.9522)">e</text><text class="cls-9" transform="translate(576.073 699.043) rotate(-30.0008)">t</text><text class="cls-9" transform="translate(580.5994 696.4302) rotate(-30.0008)">w</text><text class="cls-9" transform="matrix(0.866, -0.5, 0.5, 0.866, 590.4227, 690.7579)">o</text><text class="cls-9" transform="matrix(0.866, -0.5, 0.5, 0.866, 597.2547, 686.8135)">r</text><text class="cls-9" transform="matrix(0.866, -0.5, 0.5, 0.866, 602.0184, 684.0625)">k</text><text class="cls-9" transform="translate(608.8436 680.1226) rotate(-30.0009)">i</text><text class="cls-9" transform="matrix(0.866, -0.5, 0.5, 0.866, 612.1805, 678.1958)">n</text><text class="cls-9" transform="matrix(0.866, -0.5, 0.5, 0.866, 619.3016, 674.0845)">g</text><text class="cls-9" transform="translate(569.9813 792.2298) rotate(-30.0009)">S</text><text class="cls-9" transform="matrix(0.866, -0.5, 0.5, 0.866, 577.3836, 787.9563)">e</text><text class="cls-9" transform="matrix(0.866, -0.5, 0.5, 0.866, 584.158, 784.0447)">c</text><text class="cls-9" transform="translate(590.3758 780.4544) rotate(-30.0009)">u</text><text class="cls-9" transform="matrix(0.866, -0.5, 0.5, 0.866, 597.5174, 776.3308)">r</text><text class="cls-9" transform="translate(602.285 773.5784) rotate(-30.0009)">i</text><text class="cls-9" transform="translate(605.6355 771.6443) rotate(-30.001)">t</text><text class="cls-9" transform="matrix(0.866, -0.5, 0.5, 0.866, 610.1561, 769.0344)">y</text><text class="cls-9" transform="matrix(0.866, 0.5, -0.5, 0.866, 76.2292, 363.0299)">T</text><text class="cls-9" transform="translate(82.7282 366.7824) rotate(30.0002)">r</text><text class="cls-9" transform="matrix(0.866, 0.5, -0.5, 0.866, 87.3532, 369.4528)">a</text><text class="cls-9" transform="translate(94.1364 373.3693) rotate(30.0004)">n</text><text class="cls-9" transform="translate(101.2614 377.4821) rotate(30.0004)">s</text><text class="cls-9" transform="matrix(0.866, 0.5, -0.5, 0.866, 107.2839, 380.9596)">f</text><text class="cls-9" transform="translate(111.4665 383.3747) rotate(30.0005)">o</text><text class="cls-9" transform="translate(118.2956 387.318) rotate(30.0004)">r</text><text class="cls-9" transform="translate(123.0671 390.0724) rotate(30.0004)">m</text><text class="cls-9" transform="matrix(0.866, 0.5, -0.5, 0.866, 133.821, 396.2814)"> </text><text class="cls-9" transform="matrix(0.866, 0.5, -0.5, 0.866, 136.7009, 397.9445)">m</text><text class="cls-9" transform="translate(147.4587 404.1554) rotate(30.0002)">i</text><text class="cls-9" transform="translate(150.8151 406.0929) rotate(30.0004)">s</text><text class="cls-9" transform="matrix(0.866, 0.5, -0.5, 0.866, 156.7829, 409.5382)">s</text><text class="cls-9" transform="translate(162.8278 413.0285) rotate(30.0002)">i</text><text class="cls-9" transform="translate(166.1657 414.9562) rotate(30.0004)">o</text><text class="cls-9" transform="translate(173.0036 418.9045) rotate(30.0002)">n</text><text class="cls-9" transform="matrix(0.866, 0.5, -0.5, 0.866, 180.1393, 423.0236)"> </text><text class="cls-9" transform="matrix(0.866, 0.5, -0.5, 0.866, 183.0065, 424.6789)">c</text><text class="cls-9" transform="translate(189.2126 428.2609) rotate(30.0004)">r</text><text class="cls-9" transform="translate(193.9889 431.0197) rotate(30.0004)">i</text><text class="cls-9" transform="matrix(0.866, 0.5, -0.5, 0.866, 197.3278, 432.9474)">t</text><text class="cls-9" transform="translate(201.8649 435.5675) rotate(30.0003)">i</text><text class="cls-9" transform="translate(205.2253 437.507) rotate(30.0004)">c</text><text class="cls-9" transform="translate(211.445 441.0988) rotate(30.0003)">a</text><text class="cls-9" transform="translate(218.2155 445.007) rotate(30.0003)">l</text><text class="cls-9" transform="matrix(0.866, 0.5, -0.5, 0.866, 221.7966, 447.0744)"> </text><text class="cls-9" transform="matrix(0.866, 0.5, -0.5, 0.866, 224.6637, 448.7306)">p</text><text class="cls-9" transform="matrix(0.866, 0.5, -0.5, 0.866, 231.9186, 452.9181)">r</text><text class="cls-9" transform="matrix(0.866, 0.5, -0.5, 0.866, 236.6345, 455.6418)">o</text><text class="cls-9" transform="matrix(0.866, 0.5, -0.5, 0.866, 243.4577, 459.5802)">c</text><text class="cls-9" transform="translate(249.6169 463.1379) rotate(30.0003)">e</text><text class="cls-9" transform="translate(256.403 467.0548) rotate(30.0003)">s</text><text class="cls-9" transform="translate(262.3425 470.4845) rotate(30.0005)">s</text><text class="cls-9" transform="translate(268.4157 473.9904) rotate(30.0005)">e</text><text class="cls-9" transform="matrix(0.866, 0.5, -0.5, 0.866, 275.1618, 477.8859)">s</text><text class="cls-9" transform="translate(20.7975 415.9183) rotate(30.0004)">I</text><text class="cls-9" transform="translate(25.9157 418.8729) rotate(30.0006)">n</text><text class="cls-9" transform="matrix(0.866, 0.5, -0.5, 0.866, 33.0524, 422.993)">f</text><text class="cls-9" transform="matrix(0.866, 0.5, -0.5, 0.866, 37.3034, 425.4481)">u</text><text class="cls-9" transform="translate(44.4411 429.5692) rotate(30.0002)">s</text><text class="cls-9" transform="translate(50.4948 433.0643) rotate(30.0005)">e</text><text class="cls-9" transform="matrix(0.866, 0.5, -0.5, 0.866, 57.2507, 436.9652)"> </text><text class="cls-9" transform="matrix(0.866, 0.5, -0.5, 0.866, 60.1315, 438.6273)">d</text><text class="cls-9" transform="matrix(0.866, 0.5, -0.5, 0.866, 67.403, 442.8265)">a</text><text class="cls-9" transform="translate(74.1218 446.7049) rotate(30.0004)">t</text><text class="cls-9" transform="translate(78.6637 449.3275) rotate(30.0002)">a</text><text class="cls-9" transform="translate(85.5573 453.3075) rotate(30.0005)">,</text><text class="cls-9" transform="matrix(0.866, 0.5, -0.5, 0.866, 89.1755, 455.3968)"> </text><text class="cls-9" transform="translate(92.0475 457.0555) rotate(30.0003)">A</text><text class="cls-9" transform="matrix(0.866, 0.5, -0.5, 0.866, 100.1872, 461.7543)">I</text><text class="cls-9" transform="translate(105.3317 464.725) rotate(30.0004)">,</text><text class="cls-9" transform="translate(108.946 466.8114) rotate(30.0005)"> </text><text class="cls-9" transform="translate(111.8083 468.4637) rotate(30.0003)">&amp;</text><text class="cls-9" transform="matrix(0.866, 0.5, -0.5, 0.866, 120.4587, 473.4579)"> </text><text class="cls-9" transform="translate(123.3259 475.1141) rotate(30.0003)">e</text><text class="cls-9" transform="translate(130.1003 479.0243) rotate(30.0002)">m</text><text class="cls-9" transform="matrix(0.866, 0.5, -0.5, 0.866, 140.8718, 485.245)">e</text><text class="cls-9" transform="translate(147.6315 489.1454) rotate(30.0002)">r</text><text class="cls-9" transform="translate(152.197 491.784) rotate(30.0003)">g</text><text class="cls-9" transform="matrix(0.866, 0.5, -0.5, 0.866, 158.8132, 495.6024)">i</text><text class="cls-9" transform="matrix(0.866, 0.5, -0.5, 0.866, 162.1608, 497.535)">n</text><text class="cls-9" transform="translate(169.28 501.6463) rotate(30.0005)">g</text><text class="cls-9" transform="matrix(0.866, 0.5, -0.5, 0.866, 175.9011, 505.4686)"> </text><text class="cls-9" transform="translate(178.7507 507.1141) rotate(30.0003)">t</text><text class="cls-9" transform="matrix(0.866, 0.5, -0.5, 0.866, 183.2497, 509.7118)">e</text><text class="cls-9" transform="translate(189.9977 513.6063) rotate(30.0002)">c</text><text class="cls-9" transform="translate(196.2438 517.2137) rotate(30.0003)">h</text><text class="cls-9" transform="matrix(0.866, 0.5, -0.5, 0.866, 203.3757, 521.3319)">n</text><text class="cls-9" transform="translate(210.486 525.4364) rotate(30.0003)">o</text><text class="cls-9" transform="translate(217.3151 529.3788) rotate(30.0004)">l</text><text class="cls-9" transform="translate(220.8766 531.4354) rotate(30.0004)">o</text><text class="cls-9" transform="matrix(0.866, 0.5, -0.5, 0.866, 227.7057, 535.3778)">g</text><text class="cls-9" transform="matrix(0.866, 0.5, -0.5, 0.866, 234.3893, 539.2372)">y</text><text class="cls-9" transform="matrix(0.866, 0.5, -0.5, 0.866, 240.738, 542.9032)"> </text><text class="cls-9" transform="matrix(0.866, 0.5, -0.5, 0.866, 243.5954, 544.5526)">i</text><text class="cls-9" transform="translate(246.947 546.4881) rotate(30.0003)">n</text><text class="cls-9" transform="matrix(0.866, 0.5, -0.5, 0.866, 254.0759, 550.6034)">t</text><text class="cls-9" transform="matrix(0.866, 0.5, -0.5, 0.866, 258.5651, 553.1961)">o</text><text class="cls-9" transform="translate(265.4001 557.1415) rotate(30.0002)"> </text><text class="cls-9" transform="translate(268.2604 558.7928) rotate(30.0004)">d</text><text class="cls-9" transform="translate(275.5456 562.9989) rotate(30.0003)">i</text><text class="cls-9" transform="matrix(0.866, 0.5, -0.5, 0.866, 278.8874, 564.9286)">g</text><text class="cls-9" transform="matrix(0.866, 0.5, -0.5, 0.866, 285.5055, 568.7499)">i</text><text class="cls-9" transform="matrix(0.866, 0.5, -0.5, 0.866, 288.8483, 570.6795)">t</text><text class="cls-9" transform="translate(293.3698 573.2899) rotate(30.0002)">a</text><text class="cls-9" transform="translate(300.1618 577.2108) rotate(30.0002)">l</text><text class="cls-9" transform="matrix(0.866, 0.5, -0.5, 0.866, 303.7253, 579.2694)"> </text><text class="cls-9" transform="translate(306.5954 580.9266) rotate(30.0003)">w</text><text class="cls-9" transform="matrix(0.866, 0.5, -0.5, 0.866, 316.4255, 586.6014)">o</text><text class="cls-9" transform="translate(323.2468 590.5399) rotate(30.0004)">r</text><text class="cls-9" transform="translate(328.0026 593.286) rotate(30.0003)">k</text><text class="cls-9" transform="matrix(0.866, 0.5, -0.5, 0.866, 334.8229, 597.2235)">f</text><text class="cls-9" transform="translate(339.0583 599.6688) rotate(30.0007)">l</text><text class="cls-9" transform="matrix(0.866, 0.5, -0.5, 0.866, 342.6413, 601.7372)">o</text><text class="cls-9" transform="matrix(0.866, 0.5, -0.5, 0.866, 349.3464, 605.6092)">w</text><text class="cls-9" transform="matrix(0.866, 0.5, -0.5, 0.866, 359.2477, 611.3251)">s</text><text class="cls-9" transform="matrix(0.866, 0.5, -0.5, 0.866, 70.8992, 529.9453)">M</text><text class="cls-9" transform="translate(80.7859 535.6538) rotate(30.0004)">o</text><text class="cls-9" transform="matrix(0.866, 0.5, -0.5, 0.866, 87.6248, 539.6021)">d</text><text class="cls-9" transform="translate(94.9148 543.811) rotate(30.0003)">e</text><text class="cls-9" transform="translate(101.6658 547.7085) rotate(30.0003)">r</text><text class="cls-9" transform="translate(106.4412 550.4663) rotate(30.0003)">n</text><text class="cls-9" transform="translate(113.5721 554.5835) rotate(30.0003)">i</text><text class="cls-9" transform="matrix(0.866, 0.5, -0.5, 0.866, 116.9197, 556.5156)">z</text><text class="cls-9" transform="translate(122.8729 559.9531) rotate(30.0003)">e</text><text class="cls-9" transform="translate(129.6424 563.8613) rotate(30.0004)"> </text><text class="cls-9" transform="translate(132.4881 565.5039) rotate(30.0002)">t</text><text class="cls-9" transform="matrix(0.866, 0.5, -0.5, 0.866, 137.032, 568.1279)">h</text><text class="cls-9" transform="translate(144.1541 572.2402) rotate(30.0003)">e</text><text class="cls-9" transform="matrix(0.866, 0.5, -0.5, 0.866, 150.9471, 576.1621)"> </text><text class="cls-9" transform="translate(153.7986 577.8081) rotate(30.0002)">a</text><text class="cls-9" transform="translate(160.576 581.7207) rotate(30.0004)">p</text><text class="cls-9" transform="translate(167.8494 585.9199) rotate(30.0001)">p</text><text class="cls-9" transform="matrix(0.866, 0.5, -0.5, 0.866, 175.1258, 590.1221)">l</text><text class="cls-9" transform="matrix(0.866, 0.5, -0.5, 0.866, 178.6863, 592.1777)">i</text><text class="cls-9" transform="matrix(0.866, 0.5, -0.5, 0.866, 182.035, 594.1104)">c</text><text class="cls-9" transform="translate(188.2781 597.7158) rotate(30.0004)">a</text><text class="cls-9" transform="translate(194.9979 601.5947) rotate(30.0003)">t</text><text class="cls-9" transform="translate(199.5379 604.2158) rotate(30.0003)">i</text><text class="cls-9" transform="translate(202.8875 606.1504) rotate(30.0005)">o</text><text class="cls-9" transform="matrix(0.866, 0.5, -0.5, 0.866, 209.7088, 610.0889)">n</text><text class="cls-9" transform="translate(216.8397 614.2061) rotate(30.0005)"> </text><text class="cls-9" transform="matrix(0.866, 0.5, -0.5, 0.866, 219.7029, 615.8584)">e</text><text class="cls-9" transform="translate(226.4607 619.7607) rotate(30.0003)">s</text><text class="cls-9" transform="translate(232.4275 623.2051) rotate(30.0003)">t</text><text class="cls-9" transform="matrix(0.866, 0.5, -0.5, 0.866, 236.95, 625.8174)">a</text><text class="cls-9" transform="translate(243.6961 629.7119) rotate(30.0004)">t</text><text class="cls-9" transform="matrix(0.866, 0.5, -0.5, 0.866, 248.1785, 632.2998)">e</text><text class="cls-9" transform="matrix(0.866, 0.5, -0.5, 0.866, 52.1636, 697.7048)">M</text><text class="cls-9" transform="translate(62.0748 703.4274) rotate(30.0004)">a</text><text class="cls-9" transform="translate(68.8345 707.3303) rotate(30.0004)">n</text><text class="cls-9" transform="translate(75.9703 711.4499) rotate(30.0002)">a</text><text class="cls-9" transform="translate(82.7515 715.3654) rotate(30.0003)">g</text><text class="cls-9" transform="matrix(0.866, 0.5, -0.5, 0.866, 89.2867, 719.1384)">e</text><text class="cls-9" transform="matrix(0.866, 0.5, -0.5, 0.866, 96.0533, 723.0446)"> </text><text class="cls-9" transform="translate(98.9293 724.7058) rotate(30.0002)">&amp;</text><text class="cls-9" transform="matrix(0.866, 0.5, -0.5, 0.866, 107.565, 729.6911)"> </text><text class="cls-9" transform="translate(110.4156 731.3371) rotate(30.0004)">o</text><text class="cls-9" transform="translate(117.2623 735.2902) rotate(30.0002)">p</text><text class="cls-9" transform="matrix(0.866, 0.5, -0.5, 0.866, 124.4683, 739.4504)">t</text><text class="cls-9" transform="matrix(0.866, 0.5, -0.5, 0.866, 129.0074, 742.071)">i</text><text class="cls-9" transform="translate(132.3423 743.9968) rotate(30.0002)">m</text><text class="cls-9" transform="matrix(0.866, 0.5, -0.5, 0.866, 143.1216, 750.2204)">i</text><text class="cls-9" transform="translate(146.4585 752.1472) rotate(30.0004)">z</text><text class="cls-9" transform="translate(152.4205 755.5896) rotate(30.0004)">e</text><text class="cls-9" transform="translate(159.191 759.4978) rotate(30.0004)"> </text><text class="cls-9" transform="translate(162.0523 761.1511) rotate(30.0005)">t</text><text class="cls-9" transform="translate(166.5894 763.7702) rotate(30.0004)">h</text><text class="cls-9" transform="translate(173.7076 767.8796) rotate(30.0003)">e</text><text class="cls-9" transform="matrix(0.866, 0.5, -0.5, 0.866, 180.4888, 771.7946)"> </text><text class="cls-9" transform="matrix(0.866, 0.5, -0.5, 0.866, 183.3365, 773.4382)">m</text><text class="cls-9" transform="matrix(0.866, 0.5, -0.5, 0.866, 194.1128, 779.6608)">u</text><text class="cls-9" transform="matrix(0.866, 0.5, -0.5, 0.866, 201.2359, 783.7732)">l</text><text class="cls-9" transform="translate(204.7681 785.8122) rotate(30.0003)">t</text><text class="cls-9" transform="translate(209.2857 788.4206) rotate(30.0002)">i</text><text class="cls-9" transform="translate(212.6324 790.3523) rotate(30.0003)">-</text><text class="cls-9" transform="translate(217.6363 793.2419) rotate(30.0003)">c</text><text class="cls-9" transform="translate(223.8492 796.8288) rotate(30.0005)">l</text><text class="cls-9" transform="matrix(0.866, 0.5, -0.5, 0.866, 227.4117, 798.8864)">o</text><text class="cls-9" transform="matrix(0.866, 0.5, -0.5, 0.866, 234.2515, 802.8357)">u</text><text class="cls-9" transform="translate(241.3843 806.9538) rotate(30.0002)">d</text><text class="cls-9" transform="translate(248.649 811.1472) rotate(30.0003)"> </text><text class="cls-9" transform="translate(251.5035 812.7956) rotate(30.0005)">e</text><text class="cls-9" transform="matrix(0.866, 0.5, -0.5, 0.866, 258.2867, 816.7116)">s</text><text class="cls-9" transform="translate(264.2291 820.1433) rotate(30.0003)">t</text><text class="cls-9" transform="matrix(0.866, 0.5, -0.5, 0.866, 268.7779, 822.7692)">a</text><text class="cls-9" transform="translate(275.5103 826.6569) rotate(30.0005)">t</text><text class="cls-9" transform="translate(279.9927 829.2439) rotate(30.0005)">e</text><text class="cls-9" transform="matrix(0.866, 0.5, -0.5, 0.866, 9.8111, 578.579)">T</text><text class="cls-9" transform="translate(16.3101 582.3315) rotate(30.0002)">r</text><text class="cls-9" transform="matrix(0.866, 0.5, -0.5, 0.866, 20.9351, 585.0019)">a</text><text class="cls-9" transform="translate(27.7183 588.9184) rotate(30.0004)">n</text><text class="cls-9" transform="translate(34.8433 593.0312) rotate(30.0004)">s</text><text class="cls-9" transform="matrix(0.866, 0.5, -0.5, 0.866, 40.8658, 596.5087)">f</text><text class="cls-9" transform="translate(45.0484 598.9238) rotate(30.0005)">o</text><text class="cls-9" transform="translate(51.8775 602.8671) rotate(30.0004)">r</text><text class="cls-9" transform="translate(56.649 605.6215) rotate(30.0004)">m</text><text class="cls-9" transform="matrix(0.866, 0.5, -0.5, 0.866, 67.4244, 611.8427)">,</text><text class="cls-9" transform="matrix(0.866, 0.5, -0.5, 0.866, 71.0337, 613.9267)"> </text><text class="cls-9" transform="translate(73.898 615.58) rotate(30.0004)">s</text><text class="cls-9" transform="matrix(0.866, 0.5, -0.5, 0.866, 79.9644, 619.0829)">e</text><text class="cls-9" transform="matrix(0.866, 0.5, -0.5, 0.866, 86.731, 622.9892)">c</text><text class="cls-9" transform="translate(92.9351 626.5712) rotate(30.0002)">u</text><text class="cls-9" transform="matrix(0.866, 0.5, -0.5, 0.866, 100.066, 630.6879)">r</text><text class="cls-9" transform="matrix(0.866, 0.5, -0.5, 0.866, 104.7779, 633.4096)">e</text><text class="cls-9" transform="translate(111.5464 637.3168) rotate(30.0005)"> </text><text class="cls-9" transform="translate(114.4039 638.9672) rotate(30.0003)">&amp;</text><text class="cls-9" transform="matrix(0.866, 0.5, -0.5, 0.866, 123.0572, 643.9623)"> </text><text class="cls-9" transform="matrix(0.866, 0.5, -0.5, 0.866, 125.9195, 645.6147)">c</text><text class="cls-9" transform="translate(132.0826 649.1742) rotate(30.0005)">o</text><text class="cls-9" transform="translate(138.9195 653.1205) rotate(30.0004)">m</text><text class="cls-9" transform="translate(149.6851 659.3373) rotate(30.0003)">p</text><text class="cls-9" transform="translate(156.9566 663.5346) rotate(30.0004)">l</text><text class="cls-9" transform="matrix(0.866, 0.5, -0.5, 0.866, 160.4361, 665.5444)">y</text><text class="cls-9" transform="translate(166.7994 669.2172) rotate(30.0004)"> </text><text class="cls-9" transform="translate(169.6597 670.8696) rotate(30.0003)">w</text><text class="cls-9" transform="matrix(0.866, 0.5, -0.5, 0.866, 179.5796, 676.5971)">i</text><text class="cls-9" transform="translate(182.9468 678.5405) rotate(30.0004)">t</text><text class="cls-9" transform="matrix(0.866, 0.5, -0.5, 0.866, 187.4771, 681.1567)">h</text><text class="cls-9" transform="translate(194.6011 685.269) rotate(30.0004)"> </text><text class="cls-9" transform="matrix(0.866, 0.5, -0.5, 0.866, 197.4693, 686.9262)">i</text><text class="cls-9" transform="matrix(0.866, 0.5, -0.5, 0.866, 200.814, 688.8578)">n</text><text class="cls-9" transform="translate(207.9566 692.9809) rotate(30.0002)">d</text><text class="cls-9" transform="translate(215.2251 697.1772) rotate(30.0004)">u</text><text class="cls-9" transform="matrix(0.866, 0.5, -0.5, 0.866, 222.3443, 701.2875)">s</text><text class="cls-9" transform="translate(228.316 704.7348) rotate(30.0004)">t</text><text class="cls-9" transform="translate(232.8414 707.3471) rotate(30.0003)">r</text><text class="cls-9" transform="translate(237.6978 710.1518) rotate(30.0003)">y</text><text class="cls-9" transform="translate(243.9859 713.7817) rotate(30.0004)">-</text><text class="cls-9" transform="translate(248.9937 716.6733) rotate(30.0004)">o</text><text class="cls-9" transform="matrix(0.866, 0.5, -0.5, 0.866, 255.8091, 720.6088)">p</text><text class="cls-9" transform="matrix(0.866, 0.5, -0.5, 0.866, 263.0123, 724.767)">t</text><text class="cls-9" transform="translate(267.5533 727.3891) rotate(30.0004)">i</text><text class="cls-9" transform="translate(270.9146 729.3285) rotate(30.0005)">m</text><text class="cls-9" transform="translate(281.6617 735.5346) rotate(30.0005)">i</text><text class="cls-9" transform="matrix(0.866, 0.5, -0.5, 0.866, 285.0093, 737.4672)">z</text><text class="cls-9" transform="translate(290.9644 740.9057) rotate(30.0004)">e</text><text class="cls-9" transform="translate(297.7447 744.8207) rotate(30.0003)">d</text><text class="cls-9" transform="translate(305.0152 749.018) rotate(30.0004)"> </text><text class="cls-9" transform="matrix(0.866, 0.5, -0.5, 0.866, 307.8814, 750.6723)">c</text><text class="cls-9" transform="translate(314.0943 754.2592) rotate(30.0005)">l</text><text class="cls-9" transform="matrix(0.866, 0.5, -0.5, 0.866, 317.6841, 756.3324)">o</text><text class="cls-9" transform="translate(324.4937 760.2641) rotate(30.0002)">u</text><text class="cls-9" transform="matrix(0.866, 0.5, -0.5, 0.866, 331.6421, 764.392)">d</text><text class="cls-9" transform="matrix(0.866, 0.5, -0.5, 0.866, 338.9117, 768.5883)">s</text><text class="cls-9" transform="translate(344.9712 772.0873) rotate(30.0004)"> </text><text class="cls-9" transform="translate(347.8306 773.7377) rotate(30.0003)">f</text><text class="cls-9" transform="translate(352.024 776.1586) rotate(30.0002)">o</text><text class="cls-9" transform="translate(358.8482 780.0981) rotate(30.0005)">r</text><text class="cls-9" transform="matrix(0.866, 0.5, -0.5, 0.866, 363.6041, 782.8442)"> </text><text class="cls-9" transform="translate(366.4654 784.4965) rotate(30.0005)">F</text><text class="cls-9" transform="matrix(0.866, 0.5, -0.5, 0.866, 373.4791, 788.5463)">S</text><text class="cls-10" transform="matrix(0.866, -0.5, 0.5, 0.866, 253.9903, 181.5822)">P</text><text class="cls-10" transform="translate(261.6504 177.1588) rotate(-30.0008)">r</text><text class="cls-10" transform="matrix(0.866, -0.5, 0.5, 0.866, 266.4053, 174.4142)">i</text><text class="cls-10" transform="matrix(0.866, -0.5, 0.5, 0.866, 269.7393, 172.4879)">v</text><text class="cls-10" transform="translate(276.0049 168.8712) rotate(-30.0008)">a</text><text class="cls-10" transform="matrix(0.866, -0.5, 0.5, 0.866, 282.7413, 164.9816)">t</text><text class="cls-10" transform="matrix(0.866, -0.5, 0.5, 0.866, 287.2129, 162.4005)">e</text><text class="cls-10" transform="translate(471.289 393.72) rotate(-30.001)">M</text><text class="cls-10" transform="matrix(0.866, -0.5, 0.5, 0.866, 481.1874, 388.0042)">u<tspan x="8.2319" y="-0.0002">l</tspan></text><text class="cls-10" transform="translate(491.8281 381.8607) rotate(-30.0008)">t</text><text class="cls-10" transform="matrix(0.866, -0.5, 0.5, 0.866, 496.3691, 379.2391)">i</text><text class="cls-10" transform="matrix(0.866, -0.5, 0.5, 0.866, 499.707, 377.3118)">-</text><text class="cls-10" transform="translate(504.7118 374.4222) rotate(-30.0011)">c</text><text class="cls-10" transform="translate(510.9238 370.8353) rotate(-30.0008)">l</text><text class="cls-10" transform="matrix(0.866, -0.5, 0.5, 0.866, 514.4921, 368.7747)">o</text><text class="cls-10" transform="matrix(0.866, -0.5, 0.5, 0.866, 521.3232, 364.8314)">u</text><text class="cls-10" transform="matrix(0.866, -0.5, 0.5, 0.866, 528.4443, 360.72)">d</text><text class="cls-10" transform="matrix(0.866, -0.5, 0.5, 0.866, 535.7275, 356.5145)"> </text><text class="cls-10" transform="matrix(0.866, -0.5, 0.5, 0.866, 538.5781, 354.8685)">(</text><text class="cls-10" transform="translate(542.6777 352.5013) rotate(-30.0009)">I</text><text class="cls-10" transform="translate(547.8075 349.5399) rotate(-30.0009)">B</text><text class="cls-10" transform="matrix(0.866, -0.5, 0.5, 0.866, 555.8495, 344.8968)">M</text><text class="cls-10" transform="translate(565.7538 339.1785) rotate(-30.0009)">,</text><text class="cls-10" transform="translate(569.371 337.0902) rotate(-30.0009)"> </text><text class="cls-10" transform="translate(572.2392 335.4334) rotate(-30.0009)">A</text><text class="cls-10" transform="matrix(0.866, -0.5, 0.5, 0.866, 580.1298, 330.8777)">W</text><text class="cls-10" transform="translate(591.6406 324.2318) rotate(-30.0009)">S</text><text class="cls-10" transform="matrix(0.866, -0.5, 0.5, 0.866, 599.0556, 319.951)">,</text><text class="cls-10" transform="translate(602.6816 317.8577) rotate(-30.001)"> </text><text class="cls-10" transform="translate(605.5458 316.2034) rotate(-30.0009)">A</text><text class="cls-10" transform="matrix(0.866, -0.5, 0.5, 0.866, 613.8183, 311.4271)">z</text><text class="cls-10" transform="matrix(0.866, -0.5, 0.5, 0.866, 619.913, 307.909)">u</text><text class="cls-10" transform="translate(627.0341 303.7967) rotate(-30.0009)">r</text><text class="cls-10" transform="matrix(0.866, -0.5, 0.5, 0.866, 631.7548, 301.0716)">e</text><text class="cls-10" transform="matrix(0.866, -0.5, 0.5, 0.866, 638.3222, 297.2796)">,</text><text class="cls-10" transform="translate(641.9491 295.1859) rotate(-30.0009)"> </text><text class="cls-10" transform="translate(644.8202 293.5281) rotate(-30.0007)">.</text><text class="cls-10" transform="matrix(0.866, -0.5, 0.5, 0.866, 648.4306, 291.4432)">.</text><text class="cls-10" transform="translate(652.0478 289.3543) rotate(-30.0007)">.</text><text class="cls-10" transform="translate(655.6923 287.2503) rotate(-30.0009)">)</text><text class="cls-10" transform="matrix(0.866, -0.5, 0.5, 0.866, 452.019, 296.7667)">H</text><text class="cls-10" transform="translate(460.7387 291.7325) rotate(-30.0008)">y</text><text class="cls-10" transform="translate(467.0903 288.0646) rotate(-30.0009)">b</text><text class="cls-10" transform="matrix(0.866, -0.5, 0.5, 0.866, 474.3666, 283.8634)">r</text><text class="cls-10" transform="translate(479.1342 281.1115) rotate(-30.001)">i</text><text class="cls-10" transform="translate(482.4858 279.1759) rotate(-30.0011)">d</text><text class="cls-10" transform="translate(358.1812 236.1688) rotate(-30.0009)">P</text><text class="cls-10" transform="matrix(0.866, -0.5, 0.5, 0.866, 365.9683, 231.6732)">u</text><text class="cls-10" transform="matrix(0.866, -0.5, 0.5, 0.866, 373.0894, 227.5613)">b</text><text class="cls-10" transform="matrix(0.866, -0.5, 0.5, 0.866, 380.3716, 223.3568)">l</text><text class="cls-10" transform="translate(383.9302 221.3026) rotate(-30.0009)">i</text><text class="cls-10" transform="translate(387.2769 219.3699) rotate(-30.0009)">c</text><text class="cls-10" transform="translate(118.2241 192.1428) rotate(-30.0009)">C</text><text class="cls-10" transform="translate(126.0033 187.6511) rotate(-30.001)">l</text><text class="cls-10" transform="matrix(0.866, -0.5, 0.5, 0.866, 129.56, 185.5969)">o</text><text class="cls-10" transform="translate(136.3813 181.6594) rotate(-30.0008)">u</text><text class="cls-10" transform="translate(143.5199 177.5373) rotate(-30.0009)">d</text><text class="cls-10" transform="translate(150.7983 173.3351) rotate(-30.0009)"> </text><text class="cls-10" transform="translate(153.6713 171.676) rotate(-30.001)">d</text><text class="cls-10" transform="matrix(0.866, -0.5, 0.5, 0.866, 160.9535, 167.4714)">e</text><text class="cls-10" transform="matrix(0.866, -0.5, 0.5, 0.866, 167.7211, 163.5637)">p</text><text class="cls-10" transform="translate(174.9975 159.3625) rotate(-30.0009)">l</text><text class="cls-10" transform="matrix(0.866, -0.5, 0.5, 0.866, 178.5522, 157.3102)">o</text><text class="cls-10" transform="matrix(0.866, -0.5, 0.5, 0.866, 185.268, 153.4328)">y</text><text class="cls-10" transform="translate(191.6303 149.76) rotate(-30.0009)">m</text><text class="cls-10" transform="translate(202.4086 143.5363) rotate(-30.0009)">e</text><text class="cls-10" transform="matrix(0.866, -0.5, 0.5, 0.866, 209.1791, 139.6281)">n</text><text class="cls-10" transform="matrix(0.866, -0.5, 0.5, 0.866, 216.2953, 135.5183)">t</text><text class="cls-10" transform="translate(220.8422 132.8937) rotate(-30.001)"> </text><text class="cls-10" transform="translate(223.686 131.2521) rotate(-30.0009)">m</text><text class="cls-10" transform="matrix(0.866, -0.5, 0.5, 0.866, 234.4594, 125.0309)">o</text><text class="cls-10" transform="translate(241.2914 121.0871) rotate(-30.001)">d</text><text class="cls-10" transform="translate(248.5658 116.8869) rotate(-30.001)">e</text><text class="cls-10" transform="translate(255.3324 112.9802) rotate(-30.0009)">l</text><text class="cls-10" transform="translate(510.7902 885.0692) rotate(-30.0007)">S</text><text class="cls-10" transform="matrix(0.866, -0.5, 0.5, 0.866, 518.1945, 880.7938)">e</text><text class="cls-10" transform="translate(524.9601 876.8876) rotate(-30.0007)">r</text><text class="cls-10" transform="matrix(0.866, -0.5, 0.5, 0.866, 529.8351, 874.0731)">v</text><text class="cls-10" transform="matrix(0.866, -0.5, 0.5, 0.866, 536.1808, 870.4091)">i</text><text class="cls-10" transform="matrix(0.866, -0.5, 0.5, 0.866, 539.5256, 868.4774)">c</text><text class="cls-10" transform="matrix(0.866, -0.5, 0.5, 0.866, 545.7023, 864.912)">e</text><text class="cls-10" transform="translate(552.4553 861.0131) rotate(-30.0007)"> </text><text class="cls-10" transform="matrix(0.866, -0.5, 0.5, 0.866, 555.3273, 859.3549)">m</text><text class="cls-10" transform="matrix(0.866, -0.5, 0.5, 0.866, 566.1008, 853.1347)">a</text><text class="cls-10" transform="matrix(0.866, -0.5, 0.5, 0.866, 572.8713, 849.2255)">n</text><text class="cls-10" transform="translate(580.0178 845.099) rotate(-30.0008)">a</text><text class="cls-10" transform="matrix(0.866, -0.5, 0.5, 0.866, 586.7922, 841.1884)">g</text><text class="cls-10" transform="matrix(0.866, -0.5, 0.5, 0.866, 593.34, 837.4076)">e</text><text class="cls-10" transform="matrix(0.866, -0.5, 0.5, 0.866, 600.0978, 833.5053)">m</text><text class="cls-10" transform="translate(610.8595 827.2929) rotate(-30.0008)">e</text><text class="cls-10" transform="translate(617.6281 823.3842) rotate(-30.0007)">n</text><text class="cls-10" transform="translate(624.7658 819.2631) rotate(-30.0009)">t</text><text class="cls-10" transform="matrix(0.866, -0.5, 0.5, 0.866, 629.3078, 816.641)"> </text><text class="cls-10" transform="translate(632.1613 814.9931) rotate(-30.0009)">o</text><text class="cls-10" transform="matrix(0.866, -0.5, 0.5, 0.866, 638.9914, 811.0502)">p</text><text class="cls-10" transform="translate(646.2599 806.8529) rotate(-30.0008)">e</text><text class="cls-10" transform="matrix(0.866, -0.5, 0.5, 0.866, 653.0392, 802.9389)">r</text><text class="cls-10" transform="translate(657.6574 800.2724) rotate(-30.0008)">a</text><text class="cls-10" transform="translate(664.4015 796.3783) rotate(-30.0009)">t</text><text class="cls-10" transform="matrix(0.866, -0.5, 0.5, 0.866, 668.9445, 793.7562)">i</text><text class="cls-10" transform="matrix(0.866, -0.5, 0.5, 0.866, 672.2795, 791.83)">o</text><text class="cls-10" transform="matrix(0.866, -0.5, 0.5, 0.866, 679.1047, 787.8895)">n</text><text class="cls-10" transform="translate(686.2492 783.7641) rotate(-30.0009)">s</text><text class="cls-10" transform="translate(792.3755 560.4805) rotate(-90)">A<tspan x="9.3984" y="0">r</tspan><tspan x="14.8301" y="0">c</tspan><tspan x="22.0352" y="0">h</tspan><tspan x="30.2676" y="0">i</tspan><tspan x="34.1367" y="0">t</tspan><tspan x="39.2891" y="0">e</tspan><tspan x="47.1221" y="0">c</tspan><tspan x="54.2939" y="0">t</tspan><tspan x="59.5459" y="0">u</tspan><tspan x="67.7656" y="0">r</tspan><tspan x="73.1152" y="0">a</tspan><tspan x="80.9678" y="0">l</tspan><tspan x="85.0635" y="0"> </tspan><tspan x="88.3799" y="0">d</tspan><tspan x="96.7695" y="0">e</tspan><tspan x="104.6025" y="0">s</tspan><tspan x="111.5879" y="0">i</tspan><tspan x="115.4404" y="0">g</tspan><tspan x="123.0713" y="0">n</tspan></text><text class="cls-10" transform="translate(50.7861 763.1902) rotate(30.0002)">A</text><text class="cls-10" transform="translate(58.9433 767.8997) rotate(30.0003)">c</text><text class="cls-10" transform="matrix(0.866, 0.5, -0.5, 0.866, 65.1034, 771.4563)">c</text><text class="cls-10" transform="translate(71.2597 775.0105) rotate(30.0003)">e</text><text class="cls-10" transform="translate(78.0282 778.9183) rotate(30.0005)">l</text><text class="cls-10" transform="matrix(0.866, 0.5, -0.5, 0.866, 81.5859, 780.9729)">e</text><text class="cls-10" transform="matrix(0.866, 0.5, -0.5, 0.866, 88.3759, 784.8924)">r</text><text class="cls-10" transform="translate(92.9902 787.5574) rotate(30.0002)">a</text><text class="cls-10" transform="matrix(0.866, 0.5, -0.5, 0.866, 99.7392, 791.4539)">t</text><text class="cls-10" transform="translate(104.2128 794.0364) rotate(30.0004)">e</text><text class="cls-10" transform="translate(110.9697 797.9373) rotate(30.0002)"> </text><text class="cls-10" transform="translate(113.8554 799.6043) rotate(30.0005)">i</text><text class="cls-10" transform="translate(117.1923 801.5301) rotate(30.0003)">n</text><text class="cls-10" transform="translate(124.3173 805.6438) rotate(30.0002)">d</text><text class="cls-10" transform="translate(131.6103 809.8548) rotate(30.0002)">u</text><text class="cls-10" transform="matrix(0.866, 0.5, -0.5, 0.866, 138.7294, 813.9646)">s</text><text class="cls-10" transform="translate(144.6865 817.4051) rotate(30.0003)">t</text><text class="cls-10" transform="translate(149.2157 820.0193) rotate(30.0003)">r</text><text class="cls-10" transform="translate(154.0878 822.8328) rotate(30.0002)">y</text><text class="cls-10" transform="translate(160.4413 826.5008) rotate(30.0005)"> </text><text class="cls-10" transform="matrix(0.866, 0.5, -0.5, 0.866, 163.3007, 828.1512)">b</text><text class="cls-10" transform="matrix(0.866, 0.5, -0.5, 0.866, 170.5849, 832.3572)">u</text><text class="cls-10" transform="translate(177.7226 836.4783) rotate(30.0004)">s</text><text class="cls-10" transform="translate(183.7714 839.9705) rotate(30.0003)">i</text><text class="cls-10" transform="matrix(0.866, 0.5, -0.5, 0.866, 187.121, 841.9041)">n</text><text class="cls-10" transform="translate(194.245 846.0174) rotate(30.0003)">e</text><text class="cls-10" transform="matrix(0.866, 0.5, -0.5, 0.866, 201.0068, 849.9217)">s</text><text class="cls-10" transform="translate(206.9784 853.3689) rotate(30.0003)">s</text><text class="cls-10" transform="translate(213.0322 856.8641) rotate(30.0003)"> <tspan x="3.3103" y="0.0012">t</tspan></text><text class="cls-10" transform="translate(220.4394 861.1395) rotate(30.0003)">r</text><text class="cls-10" transform="matrix(0.866, 0.5, -0.5, 0.866, 225.0615, 863.8104)">a</text><text class="cls-10" transform="matrix(0.866, 0.5, -0.5, 0.866, 231.8407, 867.7244)">n</text><text class="cls-10" transform="translate(238.9716 871.8416) rotate(30.0004)">s</text><text class="cls-10" transform="translate(244.9697 875.3035) rotate(30.0004)">f</text><text class="cls-10" transform="translate(249.1708 877.7293) rotate(30.0005)">o</text><text class="cls-10" transform="matrix(0.866, 0.5, -0.5, 0.866, 255.999, 881.6707)">r</text><text class="cls-10" transform="matrix(0.866, 0.5, -0.5, 0.866, 260.7675, 884.4246)">m</text><text class="cls-10" transform="translate(271.5282 890.6375) rotate(30.0003)">a</text><text class="cls-10" transform="matrix(0.866, 0.5, -0.5, 0.866, 278.2743, 894.532)">t</text><text class="cls-10" transform="matrix(0.866, 0.5, -0.5, 0.866, 282.8163, 897.1551)">i</text><text class="cls-10" transform="matrix(0.866, 0.5, -0.5, 0.866, 286.165, 899.0877)">o</text><text class="cls-10" transform="translate(292.9736 903.0203) rotate(30.0004)">n</text><text class="cls-10" transform="translate(91.3561 808.7741) rotate(30.0004)">&amp;</text><text class="cls-10" transform="translate(99.986 813.7575) rotate(30.0002)"> </text><text class="cls-10" transform="matrix(0.866, 0.5, -0.5, 0.866, 102.8532, 815.4123)">h</text><text class="cls-10" transform="matrix(0.866, 0.5, -0.5, 0.866, 109.8747, 819.4665)">y</text><text class="cls-10" transform="matrix(0.866, 0.5, -0.5, 0.866, 116.2507, 823.1472)">b</text><text class="cls-10" transform="matrix(0.866, 0.5, -0.5, 0.866, 123.5153, 827.3415)">r</text><text class="cls-10" transform="translate(128.2917 830.0998) rotate(30.0004)">i</text><text class="cls-10" transform="matrix(0.866, 0.5, -0.5, 0.866, 131.6413, 832.0334)">d</text><text class="cls-10" transform="matrix(0.866, 0.5, -0.5, 0.866, 138.9245, 836.2385)"> </text><text class="cls-10" transform="translate(141.7653 837.8786) rotate(30.0003)">c</text><text class="cls-10" transform="matrix(0.866, 0.5, -0.5, 0.866, 147.9889, 841.4724)">l</text><text class="cls-10" transform="matrix(0.866, 0.5, -0.5, 0.866, 151.5651, 843.5363)">o</text><text class="cls-10" transform="translate(158.3854 847.4743) rotate(30.0003)">u</text><text class="cls-10" transform="translate(165.5173 851.5915) rotate(30.0004)">d</text><text class="cls-10" transform="translate(172.7956 855.7941) rotate(30.0003)"> </text><text class="cls-10" transform="matrix(0.866, 0.5, -0.5, 0.866, 175.6559, 857.4455)">j</text><text class="cls-10" transform="translate(179.0173 859.3859) rotate(30.0005)">o</text><text class="cls-10" transform="translate(185.8395 863.3264) rotate(30.0002)">u</text><text class="cls-10" transform="matrix(0.866, 0.5, -0.5, 0.866, 192.9675, 867.4397)">r</text><text class="cls-10" transform="matrix(0.866, 0.5, -0.5, 0.866, 197.7243, 870.1877)">n</text><text class="cls-10" transform="translate(204.8639 874.3088) rotate(30.0004)">e</text><text class="cls-10" transform="translate(211.5593 878.175) rotate(30.0004)">y</text></g></svg>