<svg id="Layer_1" data-name="Layer 1" xmlns="http://www.w3.org/2000/svg" viewBox="0 0 854.92 816.44"><defs><style>.cls-1{fill:#d2e1f3;}.cls-1,.cls-2,.cls-3{fill-rule:evenodd;}.cls-2{fill:#242b66;}.cls-3{fill:#4167b1;}.cls-4,.cls-7{fill:none;}.cls-4{stroke:#3553a4;}.cls-4,.cls-6,.cls-7{stroke-miterlimit:10;}.cls-5,.cls-8{font-size:11.12px;font-family:IBMPlexSans-SemiBold, IBM Plex Sans;font-weight:600;}.cls-10,.cls-5{fill:#fff;}.cls-6,.cls-9{fill:#3553a4;}.cls-6{stroke:#eef4fb;}.cls-7{stroke:#fff;}.cls-8{fill:#273b91;}</style></defs><polygon class="cls-1" points="691.95 212.09 691.95 212.72 348.65 388.09 5.37 212.09 348.65 36.08 691.95 212.09"/><polygon class="cls-2" points="348.65 388.09 348.65 740.11 5.37 564.11 5.37 212.09 348.65 388.09"/><polygon class="cls-3" points="691.95 212.72 691.95 564.11 348.65 740.11 348.65 388.09 691.95 212.72"/><line class="cls-4" x1="91.19" y1="256.17" x2="434.47" y2="80.16"/><line class="cls-4" x1="177.01" y1="300.25" x2="520.3" y2="124.24"/><line class="cls-4" x1="262.83" y1="344.33" x2="606.12" y2="168.32"/><text class="cls-5" transform="translate(506.33 348.11) rotate(-27.15) scale(1.13 1)">R</text><text class="cls-5" transform="matrix(1, -0.51, 0.46, 0.89, 513.56, 344.4)">e</text><text class="cls-5" transform="translate(519.78 341.22) rotate(-27.15) scale(1.13 1)">s</text><text class="cls-5" transform="translate(525.32 338.37) rotate(-27.15) scale(1.13 1)">i<tspan x="3.08" y="0">l</tspan></text><text class="cls-5" transform="matrix(1, -0.51, 0.46, 0.89, 531.68, 335.11)">i</text><text class="cls-5" transform="translate(534.75 333.54) rotate(-27.15) scale(1.13 1)">a</text><text class="cls-5" transform="translate(540.99 330.34) rotate(-27.15) scale(1.13 1)">n</text><text class="cls-5" transform="translate(547.54 326.98) rotate(-27.15) scale(1.13 1)">c</text><text class="cls-5" transform="translate(553.25 324.05) rotate(-27.15) scale(1.13 1)">y</text><text class="cls-5" transform="translate(517.77 410.25) rotate(-27.15) scale(1.13 1)">D</text><text class="cls-5" transform="matrix(1, -0.51, 0.46, 0.89, 525.43, 406.32)">e</text><text class="cls-5" transform="translate(531.56 403.17) rotate(-27.15) scale(1.13 1)">v</text><text class="cls-5" transform="translate(537.4 400.18) rotate(-27.15) scale(1.13 1)">O</text><text class="cls-5" transform="translate(545.33 396.11) rotate(-27.15) scale(1.13 1)">p</text><text class="cls-5" transform="matrix(1, -0.51, 0.46, 0.89, 552.01, 392.69)">s</text><text class="cls-5" transform="matrix(1, -0.51, 0.46, 0.89, 525.33, 477.61)">S</text><text class="cls-5" transform="matrix(1, -0.51, 0.46, 0.89, 532.09, 474.14)">t</text><text class="cls-5" transform="matrix(1, -0.51, 0.46, 0.89, 536.22, 472.03)">o</text><text class="cls-5" transform="translate(542.5 468.8) rotate(-27.15) scale(1.13 1)">r</text><text class="cls-5" transform="matrix(1, -0.51, 0.46, 0.89, 546.76, 466.62)">a</text><text class="cls-5" transform="translate(552.98 463.43) rotate(-27.15) scale(1.13 1)">g</text><text class="cls-5" transform="translate(558.99 460.35) rotate(-27.15) scale(1.13 1)">e</text><text class="cls-5" transform="translate(527.15 546.08) rotate(-27.15) scale(1.13 1)">N</text><text class="cls-5" transform="translate(535.14 541.99) rotate(-27.15) scale(1.13 1)">e</text><text class="cls-5" transform="translate(541.38 538.79) rotate(-27.15) scale(1.13 1)">t</text><text class="cls-5" transform="translate(545.54 536.66) rotate(-27.15) scale(1.13 1)">w</text><text class="cls-5" transform="translate(554.56 532.03) rotate(-27.15) scale(1.13 1)">o</text><text class="cls-5" transform="matrix(1, -0.51, 0.46, 0.89, 560.83, 528.81)">r</text><text class="cls-5" transform="translate(565.21 526.57) rotate(-27.15) scale(1.13 1)">k</text><text class="cls-5" transform="translate(571.49 523.35) rotate(-27.15) scale(1.13 1)">i</text><text class="cls-5" transform="translate(574.55 521.78) rotate(-27.15) scale(1.13 1)">n</text><text class="cls-5" transform="translate(581.11 518.42) rotate(-27.15) scale(1.13 1)">g</text><text class="cls-5" transform="matrix(1, -0.51, 0.46, 0.89, 531.49, 613.35)">S</text><text class="cls-5" transform="matrix(1, -0.51, 0.46, 0.89, 538.3, 609.86)">e</text><text class="cls-5" transform="translate(544.5 606.68) rotate(-27.15) scale(1.13 1)">c</text><text class="cls-5" transform="translate(550.24 603.74) rotate(-27.15) scale(1.13 1)">u</text><text class="cls-5" transform="matrix(1, -0.51, 0.46, 0.89, 556.77, 600.39)">r</text><text class="cls-5" transform="translate(561.17 598.13) rotate(-27.15) scale(1.13 1)">i</text><text class="cls-5" transform="translate(564.23 596.56) rotate(-27.15) scale(1.13 1)">t</text><text class="cls-5" transform="translate(568.41 594.42) rotate(-27.15) scale(1.13 1)">y</text><line class="cls-6" x1="5.36" y1="282.51" x2="348.65" y2="458.52"/><line class="cls-6" x1="5.36" y1="422.74" x2="348.65" y2="598.75"/><line class="cls-6" x1="5.36" y1="352.63" x2="348.65" y2="528.64"/><text class="cls-5" transform="translate(68.17 288.26) rotate(27.15) scale(1.13 1)">T</text><text class="cls-5" transform="translate(74.13 291.32) rotate(27.15) scale(1.13 1)">r</text><text class="cls-5" transform="matrix(1, 0.51, -0.46, 0.89, 78.37, 293.49)">a</text><text class="cls-5" transform="translate(84.6 296.69) rotate(27.14) scale(1.13 1)">n</text><text class="cls-5" transform="translate(91.17 300.05) rotate(27.14) scale(1.13 1)">s</text><text class="cls-5" transform="translate(96.68 302.88) rotate(27.14) scale(1.13 1)">f</text><text class="cls-5" transform="translate(100.54 304.86) rotate(27.14) scale(1.13 1)">o</text><text class="cls-5" transform="translate(106.8 308.07) rotate(27.14) scale(1.13 1)">r</text><text class="cls-5" transform="translate(111.2 310.32) rotate(27.14) scale(1.13 1)">m</text><text class="cls-5" transform="matrix(1, 0.51, -0.46, 0.89, 121.09, 315.39)"> </text><text class="cls-5" transform="translate(123.72 316.74) rotate(27.14) scale(1.13 1)">m</text><text class="cls-5" transform="translate(133.62 321.82) rotate(27.14) scale(1.13 1)">i</text><text class="cls-5" transform="translate(136.7 323.4) rotate(27.14) scale(1.13 1)">s</text><text class="cls-5" transform="translate(142.16 326.2) rotate(27.14) scale(1.13 1)">s</text><text class="cls-5" transform="translate(147.74 329.06) rotate(27.14) scale(1.13 1)">i</text><text class="cls-5" transform="translate(150.8 330.63) rotate(27.14) scale(1.13 1)">o</text><text class="cls-5" transform="translate(157.07 333.84) rotate(27.14) scale(1.13 1)">n</text><text class="cls-5" transform="translate(163.62 337.2) rotate(27.14) scale(1.13 1)"> </text><text class="cls-5" transform="matrix(1, 0.51, -0.46, 0.89, 166.26, 338.55)">c</text><text class="cls-5" transform="translate(171.98 341.48) rotate(27.15) scale(1.13 1)">r</text><text class="cls-5" transform="translate(176.36 343.73) rotate(27.14) scale(1.13 1)">i</text><text class="cls-5" transform="translate(179.43 345.3) rotate(27.14) scale(1.13 1)">t</text><text class="cls-5" transform="translate(183.61 347.45) rotate(27.14) scale(1.13 1)">i</text><text class="cls-5" transform="matrix(1, 0.51, -0.46, 0.89, 186.68, 349.02)">c</text><text class="cls-5" transform="translate(192.4 351.96) rotate(27.14) scale(1.13 1)">a</text><text class="cls-5" transform="translate(198.62 355.15) rotate(27.14) scale(1.13 1)">l</text><text class="cls-5" transform="matrix(1, 0.51, -0.46, 0.89, 201.89, 356.82)"> </text><text class="cls-5" transform="matrix(1, 0.51, -0.46, 0.89, 204.54, 358.18)">p</text><text class="cls-5" transform="matrix(1, 0.51, -0.46, 0.89, 211.23, 361.61)">r</text><text class="cls-5" transform="matrix(1, 0.51, -0.46, 0.89, 215.53, 363.82)">o</text><text class="cls-5" transform="matrix(1, 0.51, -0.46, 0.89, 221.82, 367.04)">c</text><text class="cls-5" transform="matrix(1, 0.51, -0.46, 0.89, 227.47, 369.94)">e</text><text class="cls-5" transform="translate(233.69 373.13) rotate(27.14) scale(1.13 1)">s</text><text class="cls-5" transform="translate(239.18 375.94) rotate(27.14) scale(1.13 1)">s</text><text class="cls-5" transform="translate(244.75 378.8) rotate(27.14) scale(1.13 1)">e</text><text class="cls-5" transform="translate(250.97 381.99) rotate(27.14) scale(1.13 1)">s</text><text class="cls-5" transform="translate(18.6 330.25) rotate(27.15) scale(1.13 1)">I</text><text class="cls-5" transform="matrix(1, 0.51, -0.46, 0.89, 23.3, 332.66)">n</text><text class="cls-5" transform="translate(29.85 336.02) rotate(27.14) scale(1.13 1)">f</text><text class="cls-5" transform="translate(33.77 338.03) rotate(27.14) scale(1.13 1)">u</text><text class="cls-5" transform="matrix(1, 0.51, -0.46, 0.89, 40.31, 341.38)">s</text><text class="cls-5" transform="translate(45.89 344.24) rotate(27.14) scale(1.13 1)">e</text><text class="cls-5" transform="matrix(1, 0.51, -0.46, 0.89, 52.08, 347.42)"> </text><text class="cls-5" transform="matrix(1, 0.51, -0.46, 0.89, 54.71, 348.77)">d</text><text class="cls-5" transform="matrix(1, 0.51, -0.46, 0.89, 61.41, 352.2)">a</text><text class="cls-5" transform="translate(67.59 355.37) rotate(27.15) scale(1.13 1)">t</text><text class="cls-5" transform="translate(71.77 357.51) rotate(27.14) scale(1.13 1)">a</text><text class="cls-5" transform="translate(78.08 360.75) rotate(27.14) scale(1.13 1)">,</text><text class="cls-5" transform="matrix(1, 0.51, -0.46, 0.89, 81.43, 362.47)"> </text><text class="cls-5" transform="translate(84.06 363.81) rotate(27.14) scale(1.13 1)">A</text><text class="cls-5" transform="matrix(1, 0.51, -0.46, 0.89, 91.55, 367.66)">I</text><text class="cls-5" transform="translate(96.26 370.07) rotate(27.15) scale(1.13 1)">,</text><text class="cls-5" transform="matrix(1, 0.51, -0.46, 0.89, 99.61, 371.79)"> </text><text class="cls-5" transform="translate(102.22 373.13) rotate(27.14) scale(1.13 1)">&amp;</text><text class="cls-5" transform="translate(110.18 377.21) rotate(27.14) scale(1.13 1)"> </text><text class="cls-5" transform="translate(112.81 378.55) rotate(27.14) scale(1.13 1)">e</text><text class="cls-5" transform="translate(119.03 381.74) rotate(27.14) scale(1.13 1)">m</text><text class="cls-5" transform="translate(128.92 386.82) rotate(27.14) scale(1.13 1)">e</text><text class="cls-5" transform="translate(135.14 390) rotate(27.14) scale(1.13 1)">r</text><text class="cls-5" transform="matrix(1, 0.51, -0.46, 0.89, 139.33, 392.15)">g</text><text class="cls-5" transform="matrix(1, 0.51, -0.46, 0.89, 145.4, 395.26)">i</text><text class="cls-5" transform="matrix(1, 0.51, -0.46, 0.89, 148.48, 396.84)">n</text><text class="cls-5" transform="translate(155.03 400.2) rotate(27.14) scale(1.13 1)">g</text><text class="cls-5" transform="translate(161.1 403.31) rotate(27.14) scale(1.13 1)"> <tspan x="2.62" y="0">t</tspan></text><text class="cls-5" transform="translate(167.86 406.78) rotate(27.14) scale(1.13 1)">e</text><text class="cls-5" transform="translate(174.07 409.96) rotate(27.14) scale(1.13 1)">c</text><text class="cls-5" transform="translate(179.79 412.9) rotate(27.14) scale(1.13 1)">h</text><text class="cls-5" transform="translate(186.35 416.26) rotate(27.15) scale(1.13 1)">n</text><text class="cls-5" transform="matrix(1, 0.51, -0.46, 0.89, 192.89, 419.61)">o</text><text class="cls-5" transform="translate(199.16 422.83) rotate(27.14) scale(1.13 1)">l</text><text class="cls-5" transform="matrix(1, 0.51, -0.46, 0.89, 202.45, 424.51)">o</text><text class="cls-5" transform="translate(208.73 427.73) rotate(27.14) scale(1.13 1)">g</text><text class="cls-5" transform="translate(214.84 430.87) rotate(27.14) scale(1.13 1)">y</text><text class="cls-5" transform="matrix(1, 0.51, -0.46, 0.89, 220.69, 433.87)"> </text><text class="cls-5" transform="translate(223.32 435.21) rotate(27.14) scale(1.13 1)">i</text><text class="cls-5" transform="matrix(1, 0.51, -0.46, 0.89, 226.39, 436.79)">n</text><text class="cls-5" transform="translate(232.93 440.14) rotate(27.14) scale(1.13 1)">t</text><text class="cls-5" transform="matrix(1, 0.51, -0.46, 0.89, 237.07, 442.27)">o</text><text class="cls-5" transform="translate(243.35 445.49) rotate(27.15) scale(1.13 1)"> </text><text class="cls-5" transform="translate(245.98 446.83) rotate(27.14) scale(1.13 1)">d</text><text class="cls-5" transform="matrix(1, 0.51, -0.46, 0.89, 252.65, 450.25)">i</text><text class="cls-5" transform="translate(255.74 451.84) rotate(27.14) scale(1.13 1)">g</text><text class="cls-5" transform="translate(261.82 454.95) rotate(27.14) scale(1.13 1)">i</text><text class="cls-5" transform="translate(264.9 456.53) rotate(27.14) scale(1.13 1)">t</text><text class="cls-5" transform="matrix(1, 0.51, -0.46, 0.89, 269.06, 458.67)">a</text><text class="cls-5" transform="matrix(1, 0.51, -0.46, 0.89, 275.29, 461.86)">l</text><text class="cls-5" transform="translate(278.56 463.54) rotate(27.14) scale(1.13 1)"> </text><text class="cls-5" transform="translate(281.18 464.88) rotate(27.14) scale(1.13 1)">w</text><text class="cls-5" transform="translate(290.21 469.51) rotate(27.14) scale(1.13 1)">o</text><text class="cls-5" transform="translate(296.48 472.73) rotate(27.14) scale(1.13 1)">r</text><text class="cls-5" transform="translate(300.87 474.98) rotate(27.14) scale(1.13 1)">k</text><text class="cls-5" transform="translate(307.13 478.19) rotate(27.14) scale(1.13 1)">f</text><text class="cls-5" transform="translate(311.02 480.18) rotate(27.14) scale(1.13 1)">l</text><text class="cls-5" transform="matrix(1, 0.51, -0.46, 0.89, 314.31, 481.87)">o</text><text class="cls-5" transform="translate(320.48 485.03) rotate(27.14) scale(1.13 1)">w</text><text class="cls-5" transform="matrix(1, 0.51, -0.46, 0.89, 329.57, 489.69)">s</text><text class="cls-5" transform="translate(63.39 420.79) rotate(27.14) scale(1.13 1)">M</text><text class="cls-5" transform="translate(72.49 425.45) rotate(27.14) scale(1.13 1)">o</text><text class="cls-5" transform="matrix(1, 0.51, -0.46, 0.89, 78.77, 428.67)">d</text><text class="cls-5" transform="translate(85.44 432.09) rotate(27.14) scale(1.13 1)">e</text><text class="cls-5" transform="translate(91.67 435.29) rotate(27.14) scale(1.13 1)">r</text><text class="cls-5" transform="translate(96.04 437.53) rotate(27.15) scale(1.13 1)">n</text><text class="cls-5" transform="translate(102.6 440.89) rotate(27.14) scale(1.13 1)">i</text><text class="cls-5" transform="matrix(1, 0.51, -0.46, 0.89, 105.66, 442.46)">z</text><text class="cls-5" transform="translate(111.15 445.28) rotate(27.15) scale(1.13 1)">e</text><text class="cls-5" transform="matrix(1, 0.51, -0.46, 0.89, 117.36, 448.46)"> </text><text class="cls-5" transform="translate(119.99 449.81) rotate(27.14) scale(1.13 1)">t</text><text class="cls-5" transform="matrix(1, 0.51, -0.46, 0.89, 124.17, 451.95)">h</text><text class="cls-5" transform="matrix(1, 0.51, -0.46, 0.89, 130.73, 455.31)">e</text><text class="cls-5" transform="translate(136.94 458.5) rotate(27.14) scale(1.13 1)"> </text><text class="cls-5" transform="translate(139.56 459.84) rotate(27.14) scale(1.13 1)">a</text><text class="cls-5" transform="matrix(1, 0.51, -0.46, 0.89, 145.8, 463.04)">p</text><text class="cls-5" transform="translate(152.46 466.46) rotate(27.14) scale(1.13 1)">p</text><text class="cls-5" transform="translate(159.17 469.89) rotate(27.14) scale(1.13 1)">l</text><text class="cls-5" transform="translate(162.43 471.57) rotate(27.15) scale(1.13 1)">i</text><text class="cls-5" transform="matrix(1, 0.51, -0.46, 0.89, 165.51, 473.15)">c</text><text class="cls-5" transform="translate(171.24 476.08) rotate(27.14) scale(1.13 1)">a</text><text class="cls-5" transform="translate(177.42 479.25) rotate(27.14) scale(1.13 1)">t</text><text class="cls-5" transform="translate(181.59 481.39) rotate(27.14) scale(1.13 1)">i</text><text class="cls-5" transform="translate(184.67 482.97) rotate(27.14) scale(1.13 1)">o</text><text class="cls-5" transform="translate(190.93 486.18) rotate(27.14) scale(1.13 1)">n</text><text class="cls-5" transform="translate(197.49 489.54) rotate(27.14) scale(1.13 1)"> </text><text class="cls-5" transform="translate(200.13 490.9) rotate(27.14) scale(1.13 1)">e</text><text class="cls-5" transform="translate(206.34 494.08) rotate(27.14) scale(1.13 1)">s</text><text class="cls-5" transform="matrix(1, 0.51, -0.46, 0.89, 211.81, 496.89)">t</text><text class="cls-5" transform="matrix(1, 0.51, -0.46, 0.89, 215.98, 499.02)">a</text><text class="cls-5" transform="translate(222.16 502.19) rotate(27.14) scale(1.13 1)">t</text><text class="cls-5" transform="translate(226.28 504.31) rotate(27.14) scale(1.13 1)">e</text><text class="cls-5" transform="translate(46.64 554) rotate(27.14) scale(1.13 1)">M</text><text class="cls-5" transform="translate(55.73 558.66) rotate(27.14) scale(1.13 1)">a</text><text class="cls-5" transform="translate(61.95 561.85) rotate(27.14) scale(1.13 1)">n</text><text class="cls-5" transform="translate(68.52 565.21) rotate(27.14) scale(1.13 1)">a</text><text class="cls-5" transform="matrix(1, 0.51, -0.46, 0.89, 74.74, 568.4)">g</text><text class="cls-5" transform="translate(80.76 571.49) rotate(27.14) scale(1.13 1)">e</text><text class="cls-5" transform="translate(86.97 574.67) rotate(27.14) scale(1.13 1)"> </text><text class="cls-5" transform="translate(89.59 576.01) rotate(27.14) scale(1.13 1)">&amp;</text><text class="cls-5" transform="translate(97.55 580.1) rotate(27.14) scale(1.13 1)"> </text><text class="cls-5" transform="translate(100.18 581.45) rotate(27.14) scale(1.13 1)">o</text><text class="cls-5" transform="matrix(1, 0.51, -0.46, 0.89, 106.46, 584.66)">p</text><text class="cls-5" transform="translate(113.06 588.05) rotate(27.14) scale(1.13 1)">t</text><text class="cls-5" transform="matrix(1, 0.51, -0.46, 0.89, 117.24, 590.19)">i</text><text class="cls-5" transform="matrix(1, 0.51, -0.46, 0.89, 120.32, 591.77)">m</text><text class="cls-5" transform="translate(130.21 596.84) rotate(27.14) scale(1.13 1)">i</text><text class="cls-5" transform="translate(133.27 598.41) rotate(27.14) scale(1.13 1)">z</text><text class="cls-5" transform="matrix(1, 0.51, -0.46, 0.89, 138.75, 601.22)">e</text><text class="cls-5" transform="matrix(1, 0.51, -0.46, 0.89, 144.97, 604.41)"> </text><text class="cls-5" transform="translate(147.59 605.75) rotate(27.14) scale(1.13 1)">t</text><text class="cls-5" transform="matrix(1, 0.51, -0.46, 0.89, 151.76, 607.89)">h</text><text class="cls-5" transform="translate(158.32 611.25) rotate(27.14) scale(1.13 1)">e</text><text class="cls-5" transform="translate(164.55 614.45) rotate(27.14) scale(1.13 1)"> </text><text class="cls-5" transform="translate(167.18 615.8) rotate(27.14) scale(1.13 1)">m</text><text class="cls-5" transform="translate(177.08 620.87) rotate(27.14) scale(1.13 1)">u</text><text class="cls-5" transform="translate(183.62 624.23) rotate(27.14) scale(1.13 1)">l</text><text class="cls-5" transform="translate(186.85 625.88) rotate(27.14) scale(1.13 1)">t</text><text class="cls-5" transform="matrix(1, 0.51, -0.46, 0.89, 191.01, 628.02)">i</text><text class="cls-5" transform="translate(194.09 629.59) rotate(27.14) scale(1.13 1)">-</text><text class="cls-5" transform="translate(198.67 631.94) rotate(27.14) scale(1.13 1)">c</text><text class="cls-5" transform="translate(204.41 634.88) rotate(27.14) scale(1.13 1)">l</text><text class="cls-5" transform="matrix(1, 0.51, -0.46, 0.89, 207.68, 636.56)">o</text><text class="cls-5" transform="translate(213.95 639.78) rotate(27.14) scale(1.13 1)">u</text><text class="cls-5" transform="translate(220.48 643.13) rotate(27.14) scale(1.13 1)">d</text><text class="cls-5" transform="translate(227.18 646.56) rotate(27.14) scale(1.13 1)"> </text><text class="cls-5" transform="translate(229.81 647.91) rotate(27.14) scale(1.13 1)">e</text><text class="cls-5" transform="translate(236.03 651.1) rotate(27.14) scale(1.13 1)">s</text><text class="cls-5" transform="matrix(1, 0.51, -0.46, 0.89, 241.5, 653.9)">t</text><text class="cls-5" transform="translate(245.66 656.04) rotate(27.14) scale(1.13 1)">a</text><text class="cls-5" transform="matrix(1, 0.51, -0.46, 0.89, 251.86, 659.22)">t</text><text class="cls-5" transform="translate(255.98 661.33) rotate(27.14) scale(1.13 1)">e</text><line class="cls-7" x1="348.65" y1="458.21" x2="691.95" y2="282.83"/><line class="cls-7" x1="348.65" y1="528.32" x2="691.95" y2="352.94"/><line class="cls-7" x1="348.65" y1="598.43" x2="691.95" y2="423.06"/><line class="cls-7" x1="348.65" y1="668.55" x2="691.95" y2="493.17"/><line class="cls-6" x1="5.36" y1="492.85" x2="348.65" y2="668.86"/><text class="cls-5" transform="translate(8.78 459.41) rotate(27.15) scale(1.13 1)">T</text><text class="cls-5" transform="translate(14.74 462.47) rotate(27.15) scale(1.13 1)">r</text><text class="cls-5" transform="translate(18.98 464.64) rotate(27.14) scale(1.13 1)">a</text><text class="cls-5" transform="translate(25.21 467.84) rotate(27.14) scale(1.13 1)">n</text><text class="cls-5" transform="matrix(1, 0.51, -0.46, 0.89, 31.78, 471.2)">s</text><text class="cls-5" transform="translate(37.29 474.03) rotate(27.14) scale(1.13 1)">f</text><text class="cls-5" transform="translate(41.15 476.01) rotate(27.14) scale(1.13 1)">o</text><text class="cls-5" transform="translate(47.42 479.22) rotate(27.14) scale(1.13 1)">r</text><text class="cls-5" transform="translate(51.81 481.47) rotate(27.14) scale(1.13 1)">m</text><text class="cls-5" transform="translate(61.69 486.54) rotate(27.14) scale(1.13 1)">,</text><text class="cls-5" transform="matrix(1, 0.51, -0.46, 0.89, 65.03, 488.25)"> </text><text class="cls-5" transform="translate(67.66 489.6) rotate(27.14) scale(1.13 1)">s</text><text class="cls-5" transform="translate(73.23 492.46) rotate(27.14) scale(1.13 1)">e</text><text class="cls-5" transform="translate(79.44 495.64) rotate(27.14) scale(1.13 1)">c</text><text class="cls-5" transform="translate(85.16 498.57) rotate(27.14) scale(1.13 1)">u</text><text class="cls-5" transform="translate(91.72 501.94) rotate(27.14) scale(1.13 1)">r</text><text class="cls-5" transform="matrix(1, 0.51, -0.46, 0.89, 96.03, 504.15)">e</text><text class="cls-5" transform="translate(102.25 507.34) rotate(27.14) scale(1.13 1)"> </text><text class="cls-5" transform="translate(104.89 508.69) rotate(27.14) scale(1.13 1)">&amp;</text><text class="cls-5" transform="translate(112.82 512.75) rotate(27.15) scale(1.13 1)"> </text><text class="cls-5" transform="translate(115.45 514.1) rotate(27.14) scale(1.13 1)">c</text><text class="cls-5" transform="matrix(1, 0.51, -0.46, 0.89, 121.12, 517.01)">o</text><text class="cls-5" transform="translate(127.39 520.23) rotate(27.14) scale(1.13 1)">m</text><text class="cls-5" transform="translate(137.3 525.3) rotate(27.14) scale(1.13 1)">p</text><text class="cls-5" transform="translate(143.97 528.73) rotate(27.14) scale(1.13 1)">l</text><text class="cls-5" transform="translate(147.16 530.36) rotate(27.14) scale(1.13 1)">y</text><text class="cls-5" transform="translate(153.01 533.36) rotate(27.14) scale(1.13 1)"> </text><text class="cls-5" transform="matrix(1, 0.51, -0.46, 0.89, 155.66, 534.72)">w</text><text class="cls-5" transform="translate(164.76 539.38) rotate(27.14) scale(1.13 1)">i</text><text class="cls-5" transform="translate(167.85 540.97) rotate(27.14) scale(1.13 1)">t</text><text class="cls-5" transform="translate(172 543.1) rotate(27.14) scale(1.13 1)">h</text><text class="cls-5" transform="translate(178.55 546.46) rotate(27.14) scale(1.13 1)"> </text><text class="cls-5" transform="matrix(1, 0.51, -0.46, 0.89, 181.19, 547.81)">i</text><text class="cls-5" transform="translate(184.27 549.39) rotate(27.14) scale(1.13 1)">n</text><text class="cls-5" transform="translate(190.83 552.75) rotate(27.14) scale(1.13 1)">d</text><text class="cls-5" transform="translate(197.52 556.18) rotate(27.14) scale(1.13 1)">u</text><text class="cls-5" transform="matrix(1, 0.51, -0.46, 0.89, 204.08, 559.54)">s</text><text class="cls-5" transform="matrix(1, 0.51, -0.46, 0.89, 209.54, 562.34)">t</text><text class="cls-5" transform="matrix(1, 0.51, -0.46, 0.89, 213.71, 564.48)">r</text><text class="cls-5" transform="translate(218.18 566.77) rotate(27.14) scale(1.13 1)">y</text><text class="cls-5" transform="translate(223.93 569.72) rotate(27.14) scale(1.13 1)">-</text><text class="cls-5" transform="translate(228.55 572.09) rotate(27.15) scale(1.13 1)">o</text><text class="cls-5" transform="matrix(1, 0.51, -0.46, 0.89, 234.8, 575.3)">p</text><text class="cls-5" transform="translate(241.44 578.7) rotate(27.14) scale(1.13 1)">t</text><text class="cls-5" transform="translate(245.6 580.83) rotate(27.14) scale(1.13 1)">i</text><text class="cls-5" transform="translate(248.68 582.41) rotate(27.14) scale(1.13 1)">m</text><text class="cls-5" transform="translate(258.57 587.48) rotate(27.14) scale(1.13 1)">i</text><text class="cls-5" transform="matrix(1, 0.51, -0.46, 0.89, 261.66, 589.07)">z</text><text class="cls-5" transform="translate(267.11 591.86) rotate(27.14) scale(1.13 1)">e</text><text class="cls-5" transform="translate(273.35 595.06) rotate(27.14) scale(1.13 1)">d</text><text class="cls-5" transform="translate(280.03 598.48) rotate(27.14) scale(1.13 1)"> </text><text class="cls-5" transform="translate(282.66 599.83) rotate(27.14) scale(1.13 1)">c</text><text class="cls-5" transform="translate(288.37 602.76) rotate(27.15) scale(1.13 1)">l</text><text class="cls-5" transform="translate(291.64 604.44) rotate(27.14) scale(1.13 1)">o</text><text class="cls-5" transform="translate(297.91 607.65) rotate(27.14) scale(1.13 1)">u</text><text class="cls-5" transform="translate(304.45 611.01) rotate(27.14) scale(1.13 1)">d</text><text class="cls-5" transform="translate(311.15 614.44) rotate(27.14) scale(1.13 1)">s</text><text class="cls-5" transform="translate(316.72 617.3) rotate(27.14) scale(1.13 1)"> </text><text class="cls-5" transform="matrix(1, 0.51, -0.46, 0.89, 319.33, 618.64)">f</text><text class="cls-5" transform="translate(323.21 620.62) rotate(27.14) scale(1.13 1)">o</text><text class="cls-5" transform="translate(329.47 623.83) rotate(27.15) scale(1.13 1)">r</text><text class="cls-5" transform="matrix(1, 0.51, -0.46, 0.89, 333.85, 626.08)"> </text><text class="cls-8" transform="translate(216.7 152.58) rotate(-27.15) scale(1.13 1)">P</text><text class="cls-8" transform="matrix(1, -0.51, 0.46, 0.89, 223.75, 148.96)">r</text><text class="cls-8" transform="translate(228.13 146.72) rotate(-27.15) scale(1.13 1)">i</text><text class="cls-8" transform="translate(231.19 145.15) rotate(-27.15) scale(1.13 1)">v</text><text class="cls-8" transform="translate(236.94 142.2) rotate(-27.15) scale(1.13 1)">a</text><text class="cls-8" transform="translate(243.13 139.02) rotate(-27.15) scale(1.13 1)">t</text><text class="cls-8" transform="translate(247.24 136.92) rotate(-27.15) scale(1.13 1)">e</text><text class="cls-8" transform="translate(404.18 325.7) rotate(-27.15) scale(1.13 1)">M</text><text class="cls-8" transform="translate(413.28 321.04) rotate(-27.15) scale(1.13 1)">u</text><text class="cls-8" transform="translate(419.84 317.67) rotate(-27.15) scale(1.13 1)">l</text><text class="cls-8" transform="translate(423.06 316.03) rotate(-27.15) scale(1.13 1)">t</text><text class="cls-8" transform="matrix(1, -0.51, 0.46, 0.89, 427.23, 313.89)">i</text><text class="cls-8" transform="translate(430.29 312.32) rotate(-27.15) scale(1.13 1)">-</text><text class="cls-8" transform="translate(434.88 309.96) rotate(-27.15) scale(1.13 1)">c</text><text class="cls-8" transform="translate(440.62 307.02) rotate(-27.15) scale(1.13 1)">l</text><text class="cls-8" transform="translate(443.88 305.35) rotate(-27.15) scale(1.13 1)">o</text><text class="cls-8" transform="translate(450.16 302.13) rotate(-27.15) scale(1.13 1)">u</text><text class="cls-8" transform="translate(456.7 298.78) rotate(-27.15) scale(1.13 1)">d</text><text class="cls-8" transform="translate(463.39 295.35) rotate(-27.15) scale(1.13 1)"> </text><text class="cls-8" transform="matrix(1, -0.51, 0.46, 0.89, 466.03, 293.99)">(</text><text class="cls-8" transform="translate(469.78 292.07) rotate(-27.15) scale(1.13 1)">I</text><text class="cls-8" transform="translate(474.49 289.65) rotate(-27.15) scale(1.13 1)">B</text><text class="cls-8" transform="translate(481.87 285.87) rotate(-27.15) scale(1.13 1)">M</text><text class="cls-8" transform="matrix(1, -0.51, 0.46, 0.89, 490.97, 281.21)">,</text><text class="cls-8" transform="translate(494.31 279.49) rotate(-27.15) scale(1.13 1)"> </text><text class="cls-8" transform="translate(496.94 278.15) rotate(-27.15) scale(1.13 1)">A</text><text class="cls-8" transform="translate(504.22 274.41) rotate(-27.15) scale(1.13 1)">W</text><text class="cls-8" transform="translate(514.77 269) rotate(-27.15) scale(1.13 1)">S</text><text class="cls-8" transform="translate(521.6 265.5) rotate(-27.15) scale(1.13 1)">,</text><text class="cls-8" transform="matrix(1, -0.51, 0.46, 0.89, 524.93, 263.79)"> </text><text class="cls-8" transform="translate(527.56 262.44) rotate(-27.15) scale(1.13 1)">A</text><text class="cls-8" transform="translate(535.15 258.55) rotate(-27.15) scale(1.13 1)">z</text><text class="cls-8" transform="matrix(1, -0.51, 0.46, 0.89, 540.75, 255.69)">u</text><text class="cls-8" transform="translate(547.31 252.32) rotate(-27.15) scale(1.13 1)">r</text><text class="cls-8" transform="translate(551.63 250.1) rotate(-27.15) scale(1.13 1)">e</text><text class="cls-8" transform="translate(557.67 247.01) rotate(-27.15) scale(1.13 1)">,</text><text class="cls-8" transform="matrix(1, -0.51, 0.46, 0.89, 561, 245.3)"> </text><text class="cls-8" transform="translate(563.63 243.95) rotate(-27.15) scale(1.13 1)">.</text><text class="cls-8" transform="translate(566.97 242.24) rotate(-27.15) scale(1.13 1)">.</text><text class="cls-8" transform="translate(570.28 240.54) rotate(-27.15) scale(1.13 1)">.</text><text class="cls-8" transform="matrix(1, -0.51, 0.46, 0.89, 573.63, 238.82)">)</text><text class="cls-8" transform="translate(381.71 247.07) rotate(-27.15) scale(1.13 1)">H</text><text class="cls-8" transform="translate(389.7 242.97) rotate(-27.15) scale(1.13 1)">y</text><text class="cls-8" transform="matrix(1, -0.51, 0.46, 0.89, 395.55, 239.97)">b</text><text class="cls-8" transform="matrix(1, -0.51, 0.46, 0.89, 402.23, 236.55)">r</text><text class="cls-8" transform="translate(406.61 234.3) rotate(-27.15) scale(1.13 1)">i</text><text class="cls-8" transform="matrix(1, -0.51, 0.46, 0.89, 409.7, 232.72)">d</text><text class="cls-8" transform="translate(300.24 199.47) rotate(-27.15) scale(1.13 1)">P</text><text class="cls-8" transform="matrix(1, -0.51, 0.46, 0.89, 307.4, 195.81)">u</text><text class="cls-8" transform="translate(313.96 192.44) rotate(-27.15) scale(1.13 1)">b</text><text class="cls-8" transform="matrix(1, -0.51, 0.46, 0.89, 320.65, 189.01)">l</text><text class="cls-8" transform="matrix(1, -0.51, 0.46, 0.89, 323.92, 187.33)">i</text><text class="cls-8" transform="translate(326.99 185.76) rotate(-27.15) scale(1.13 1)">c</text><text class="cls-8" transform="translate(105.7 152.57) rotate(-27.15) scale(1.13 1)">C</text><text class="cls-8" transform="matrix(1, -0.51, 0.46, 0.89, 112.86, 148.9)">l</text><text class="cls-8" transform="translate(116.13 147.22) rotate(-27.15) scale(1.13 1)">o</text><text class="cls-8" transform="matrix(1, -0.51, 0.46, 0.89, 122.41, 144)">u</text><text class="cls-8" transform="matrix(1, -0.51, 0.46, 0.89, 128.97, 140.64)">d</text><text class="cls-8" transform="matrix(1, -0.51, 0.46, 0.89, 135.65, 137.21)"> </text><text class="cls-8" transform="translate(138.27 135.87) rotate(-27.15) scale(1.13 1)">d</text><text class="cls-8" transform="matrix(1, -0.51, 0.46, 0.89, 144.97, 132.44)">e</text><text class="cls-8" transform="translate(151.18 129.25) rotate(-27.15) scale(1.13 1)">p</text><text class="cls-8" transform="translate(157.87 125.82) rotate(-27.15) scale(1.13 1)">l</text><text class="cls-8" transform="translate(161.15 124.14) rotate(-27.15) scale(1.13 1)">o</text><text class="cls-8" transform="translate(167.3 120.98) rotate(-27.15) scale(1.13 1)">y</text><text class="cls-8" transform="translate(173.14 117.99) rotate(-27.15) scale(1.13 1)">m</text><text class="cls-8" transform="translate(183.06 112.91) rotate(-27.15) scale(1.13 1)">e</text><text class="cls-8" transform="translate(189.28 109.72) rotate(-27.15) scale(1.13 1)">n</text><text class="cls-8" transform="matrix(1, -0.51, 0.46, 0.89, 195.83, 106.36)">t<tspan x="4.16" y="0"> </tspan></text><text class="cls-8" transform="matrix(1, -0.51, 0.46, 0.89, 202.61, 102.88)">m</text><text class="cls-8" transform="matrix(1, -0.51, 0.46, 0.89, 212.51, 97.81)">o</text><text class="cls-8" transform="translate(218.8 94.58) rotate(-27.15) scale(1.13 1)">d</text><text class="cls-8" transform="translate(225.47 91.16) rotate(-27.15) scale(1.13 1)">e</text><text class="cls-8" transform="matrix(1, -0.51, 0.46, 0.89, 231.68, 87.98)">l</text><line class="cls-4" x1="235.98" y1="82.85" x2="334.3" y2="32.43"/><polygon class="cls-9" points="335.28 37.53 340.69 29.16 330.73 28.66 335.28 37.53"/><line class="cls-4" x1="6.39" y1="200.56" x2="101.06" y2="152.02"/><polygon class="cls-9" points="9.96 204.34 0 203.84 5.41 195.46 9.96 204.34"/><line class="cls-4" x1="705.23" y1="331.25" x2="705.23" y2="268.31"/><polygon class="cls-9" points="710.21 269.77 705.23 261.14 700.24 269.77 710.21 269.77"/><line class="cls-4" x1="704.65" y1="514.56" x2="704.65" y2="451.62"/><polygon class="cls-9" points="709.64 513.1 704.65 521.74 699.66 513.1 709.64 513.1"/><line class="cls-4" x1="624.11" y1="613.42" x2="684.34" y2="582.5"/><polygon class="cls-9" points="685.32 587.6 690.72 579.22 680.76 578.73 685.32 587.6"/><line class="cls-4" x1="383.82" y1="736.77" x2="444.05" y2="705.85"/><polygon class="cls-9" points="387.4 740.54 377.44 740.05 382.84 731.67 387.4 740.54"/><text class="cls-8" transform="matrix(1, -0.51, 0.46, 0.89, 456.73, 702.76)">S</text><text class="cls-8" transform="translate(463.54 699.27) rotate(-27.15) scale(1.13 1)">e</text><text class="cls-8" transform="matrix(1, -0.51, 0.46, 0.89, 469.75, 696.09)">r</text><text class="cls-8" transform="translate(474.22 693.8) rotate(-27.15) scale(1.13 1)">v</text><text class="cls-8" transform="translate(480.06 690.8) rotate(-27.15) scale(1.13 1)">i</text><text class="cls-8" transform="matrix(1, -0.51, 0.46, 0.89, 483.13, 689.22)">c</text><text class="cls-8" transform="translate(488.8 686.32) rotate(-27.15) scale(1.13 1)">e</text><text class="cls-8" transform="translate(495.01 683.13) rotate(-27.15) scale(1.13 1)"> </text><text class="cls-8" transform="matrix(1, -0.51, 0.46, 0.89, 497.63, 681.79)">m</text><text class="cls-8" transform="translate(507.53 676.71) rotate(-27.15) scale(1.13 1)">a</text><text class="cls-8" transform="matrix(1, -0.51, 0.46, 0.89, 513.76, 673.52)">n</text><text class="cls-8" transform="matrix(1, -0.51, 0.46, 0.89, 520.33, 670.15)">a</text><text class="cls-8" transform="translate(526.54 666.97) rotate(-27.15) scale(1.13 1)">g</text><text class="cls-8" transform="translate(532.57 663.88) rotate(-27.15) scale(1.13 1)">e</text><text class="cls-8" transform="matrix(1, -0.51, 0.46, 0.89, 538.78, 660.69)">m</text><text class="cls-8" transform="translate(548.67 655.62) rotate(-27.15) scale(1.13 1)">e</text><text class="cls-8" transform="translate(554.9 652.43) rotate(-27.15) scale(1.13 1)">n</text><text class="cls-8" transform="translate(561.43 649.08) rotate(-27.15) scale(1.13 1)">t</text><text class="cls-8" transform="translate(565.62 646.93) rotate(-27.15) scale(1.13 1)"> </text><text class="cls-8" transform="matrix(1, -0.51, 0.46, 0.89, 568.24, 645.59)">o</text><text class="cls-8" transform="matrix(1, -0.51, 0.46, 0.89, 574.52, 642.37)">p</text><text class="cls-8" transform="matrix(1, -0.51, 0.46, 0.89, 581.2, 638.94)">e</text><text class="cls-8" transform="translate(587.41 635.76) rotate(-27.15) scale(1.13 1)">r</text><text class="cls-8" transform="matrix(1, -0.51, 0.46, 0.89, 591.68, 633.57)">a</text><text class="cls-8" transform="translate(597.86 630.4) rotate(-27.15) scale(1.13 1)">t</text><text class="cls-8" transform="translate(602.03 628.26) rotate(-27.15) scale(1.13 1)">i</text><text class="cls-8" transform="matrix(1, -0.51, 0.46, 0.89, 605.1, 626.69)">o</text><text class="cls-8" transform="translate(611.37 623.47) rotate(-27.15) scale(1.13 1)">n</text><text class="cls-8" transform="translate(617.92 620.12) rotate(-27.15) scale(1.13 1)">s</text><text class="cls-8" transform="translate(708.49 445.03) rotate(-90) scale(1.13 1)">A<tspan x="7.48" y="0">r</tspan><tspan x="11.79" y="0">c</tspan><tspan x="17.5" y="0">h</tspan><tspan x="24.02" y="0">i</tspan><tspan x="27.09" y="0">t</tspan><tspan x="31.22" y="0">e</tspan><tspan x="37.41" y="0">c</tspan><tspan x="43.12" y="0">t</tspan><tspan x="47.28" y="0">u</tspan><tspan x="53.81" y="0">r</tspan><tspan x="58.09" y="0">a</tspan><tspan x="64.28" y="0">l</tspan><tspan x="67.55" y="0"> </tspan><tspan x="70.19" y="0">d</tspan><tspan x="76.88" y="0">e</tspan><tspan x="83.07" y="0">s</tspan><tspan x="88.62" y="0">i</tspan><tspan x="91.71" y="0">g</tspan><tspan x="97.76" y="0">n</tspan></text><line class="cls-4" x1="7.11" y1="595.5" x2="63.97" y2="624.41"/><polygon class="cls-9" points="6.15 600.6 0.71 592.24 10.67 591.71 6.15 600.6"/><text class="cls-8" transform="matrix(1, 0.51, -0.46, 0.89, 45.43, 606)">A</text><text class="cls-8" transform="translate(52.89 609.83) rotate(27.15) scale(1.13 1)">c</text><text class="cls-8" transform="matrix(1, 0.51, -0.46, 0.89, 58.55, 612.73)">c</text><text class="cls-8" transform="matrix(1, 0.51, -0.46, 0.89, 64.22, 615.64)">e</text><text class="cls-8" transform="translate(70.45 618.83) rotate(27.14) scale(1.13 1)">l</text><text class="cls-8" transform="translate(73.72 620.51) rotate(27.14) scale(1.13 1)">e</text><text class="cls-8" transform="translate(79.95 623.7) rotate(27.14) scale(1.13 1)">r</text><text class="cls-8" transform="translate(84.21 625.88) rotate(27.14) scale(1.13 1)">a</text><text class="cls-8" transform="translate(90.39 629.05) rotate(27.14) scale(1.13 1)">t</text><text class="cls-8" transform="matrix(1, 0.51, -0.46, 0.89, 94.5, 631.16)">e</text><text class="cls-8" transform="translate(100.73 634.36) rotate(27.14) scale(1.13 1)"> </text><text class="cls-8" transform="translate(103.35 635.7) rotate(27.14) scale(1.13 1)">i</text><text class="cls-8" transform="translate(106.42 637.27) rotate(27.14) scale(1.13 1)">n</text><text class="cls-8" transform="translate(112.99 640.64) rotate(27.14) scale(1.13 1)">d</text><text class="cls-8" transform="matrix(1, 0.51, -0.46, 0.89, 119.67, 644.07)">u</text><text class="cls-8" transform="translate(126.21 647.42) rotate(27.14) scale(1.13 1)">s</text><text class="cls-8" transform="matrix(1, 0.51, -0.46, 0.89, 131.69, 650.23)">t</text><text class="cls-8" transform="translate(135.86 652.37) rotate(27.14) scale(1.13 1)">r</text><text class="cls-8" transform="translate(140.34 654.67) rotate(27.14) scale(1.13 1)">y</text><text class="cls-8" transform="translate(146.16 657.65) rotate(27.14) scale(1.13 1)"> </text><text class="cls-8" transform="translate(148.78 658.99) rotate(27.14) scale(1.13 1)">b</text><text class="cls-8" transform="translate(155.48 662.43) rotate(27.14) scale(1.13 1)">u</text><text class="cls-8" transform="matrix(1, 0.51, -0.46, 0.89, 162.03, 665.79)">s</text><text class="cls-8" transform="translate(167.59 668.64) rotate(27.14) scale(1.13 1)">i</text><text class="cls-8" transform="translate(170.68 670.22) rotate(27.14) scale(1.13 1)">n</text><text class="cls-8" transform="translate(177.22 673.57) rotate(27.14) scale(1.13 1)">e</text><text class="cls-8" transform="matrix(1, 0.51, -0.46, 0.89, 183.44, 676.76)">s</text><text class="cls-8" transform="translate(188.92 679.57) rotate(27.14) scale(1.13 1)">s</text><text class="cls-8" transform="translate(194.47 682.42) rotate(27.14) scale(1.13 1)"> </text><text class="cls-8" transform="translate(197.12 683.78) rotate(27.14) scale(1.13 1)">t</text><text class="cls-8" transform="translate(201.28 685.91) rotate(27.14) scale(1.13 1)">r</text><text class="cls-8" transform="translate(205.53 688.09) rotate(27.14) scale(1.13 1)">a</text><text class="cls-8" transform="translate(211.78 691.3) rotate(27.14) scale(1.13 1)">n</text><text class="cls-8" transform="translate(218.31 694.64) rotate(27.14) scale(1.13 1)">s</text><text class="cls-8" transform="translate(223.85 697.48) rotate(27.14) scale(1.13 1)">f</text><text class="cls-8" transform="translate(227.7 699.46) rotate(27.14) scale(1.13 1)">o</text><text class="cls-8" transform="matrix(1, 0.51, -0.46, 0.89, 233.96, 702.67)">r</text><text class="cls-8" transform="translate(238.36 704.92) rotate(27.14) scale(1.13 1)">m</text><text class="cls-8" transform="matrix(1, 0.51, -0.46, 0.89, 248.25, 709.99)">a</text><text class="cls-8" transform="translate(254.43 713.16) rotate(27.14) scale(1.13 1)">t</text><text class="cls-8" transform="matrix(1, 0.51, -0.46, 0.89, 258.6, 715.3)">i</text><text class="cls-8" transform="translate(261.66 716.87) rotate(27.14) scale(1.13 1)">o</text><text class="cls-8" transform="translate(267.94 720.09) rotate(27.14) scale(1.13 1)">n</text><text class="cls-8" transform="matrix(1, 0.51, -0.46, 0.89, 81.68, 642.18)">&amp;</text><text class="cls-8" transform="matrix(1, 0.51, -0.46, 0.89, 89.62, 646.26)"> </text><text class="cls-8" transform="matrix(1, 0.51, -0.46, 0.89, 92.24, 647.6)">h</text><text class="cls-8" transform="translate(98.7 650.91) rotate(27.14) scale(1.13 1)">y</text><text class="cls-8" transform="translate(104.56 653.92) rotate(27.14) scale(1.13 1)">b</text><text class="cls-8" transform="translate(111.24 657.34) rotate(27.15) scale(1.13 1)">r</text><text class="cls-8" transform="matrix(1, 0.51, -0.46, 0.89, 115.62, 659.59)">i</text><text class="cls-8" transform="translate(118.7 661.17) rotate(27.14) scale(1.13 1)">d</text><text class="cls-8" transform="matrix(1, 0.51, -0.46, 0.89, 125.38, 664.59)"> </text><text class="cls-8" transform="translate(128.01 665.94) rotate(27.14) scale(1.13 1)">c</text><text class="cls-8" transform="translate(133.72 668.87) rotate(27.14) scale(1.13 1)">l</text><text class="cls-8" transform="translate(136.99 670.55) rotate(27.14) scale(1.13 1)">o</text><text class="cls-8" transform="matrix(1, 0.51, -0.46, 0.89, 143.27, 673.76)">u</text><text class="cls-8" transform="matrix(1, 0.51, -0.46, 0.89, 149.83, 677.13)">d</text><text class="cls-8" transform="matrix(1, 0.51, -0.46, 0.89, 156.51, 680.55)"> </text><text class="cls-8" transform="translate(159.14 681.9) rotate(27.14) scale(1.13 1)">j</text><text class="cls-8" transform="translate(162.22 683.48) rotate(27.14) scale(1.13 1)">o</text><text class="cls-8" transform="translate(168.51 686.7) rotate(27.14) scale(1.13 1)">u</text><text class="cls-8" transform="translate(175.05 690.06) rotate(27.14) scale(1.13 1)">r</text><text class="cls-8" transform="translate(179.44 692.31) rotate(27.14) scale(1.13 1)">n</text><text class="cls-8" transform="translate(185.99 695.67) rotate(27.14) scale(1.13 1)">e</text><text class="cls-8" transform="translate(192.13 698.82) rotate(27.14) scale(1.13 1)">y</text><line class="cls-4" x1="232.32" y1="710.02" x2="289.17" y2="738.93"/><polygon class="cls-9" points="285.61 742.71 295.57 742.18 290.13 733.82 285.61 742.71"/><path class="cls-9" d="M408.87,167.48l-1.34-2.06a3.82,3.82,0,0,0-4.88-1.16,3,3,0,0,0-1.31,4.34l1.34,2.06a1.5,1.5,0,0,0-.66,2.17l2.69,4.13a1.93,1.93,0,0,0,2.44.58l6.19-3.18a1.5,1.5,0,0,0,.66-2.17l-2.68-4.12A1.94,1.94,0,0,0,408.87,167.48Zm-6,.32a1.49,1.49,0,0,1,.65-2.17,1.92,1.92,0,0,1,2.44.59l1.34,2.06-3.09,1.59Zm3.36,8.36L403.57,172l6.2-3.18,2.68,4.12Z" transform="translate(-206.81 -10.47)"/><path class="cls-9" d="M409,158.37a9.71,9.71,0,0,0-9.7-2.3c-4.67,1.43-7.14,6-5.53,10.1h0a5.51,5.51,0,0,0-.79,8.39,7.32,7.32,0,0,0,8.47,1.32l.4-.2-.9-1.38-.39.2a5.27,5.27,0,0,1-6.72-1.6,4,4,0,0,1,1.09-5.52l.94-.7-.41-1c-1.29-3.32.69-6.94,4.43-8.09a7.78,7.78,0,0,1,7.76,1.84l.8.83,1.15-.37a5.11,5.11,0,0,1,6.3,2.63,4.16,4.16,0,0,1-2.17,5.26l-.39.2.9,1.37.39-.2A5.61,5.61,0,0,0,417,161,7.13,7.13,0,0,0,409,158.37Z" transform="translate(-206.81 -10.47)"/><path class="cls-9" d="M481.71,207a.57.57,0,0,0,.25-.82l-1.56-2.4a.74.74,0,0,0-.93-.23.56.56,0,0,0-.25.82h0l1.56,2.4A.72.72,0,0,0,481.71,207Z" transform="translate(-206.81 -10.47)"/><path class="cls-9" d="M491.81,208.78a9.35,9.35,0,0,0-12,2.48,7,7,0,0,0-.44,7.46,5,5,0,0,0-1.32,7.49,6.53,6.53,0,0,0,7.89,1.48l12.39-6.35c3.74-1.92,5-6.16,2.87-9.48A8.32,8.32,0,0,0,491.81,208.78Zm5.87,11.53-12.39,6.35a5,5,0,0,1-6.4-1.51,3.85,3.85,0,0,1,1.19-5.38,8.36,8.36,0,0,0,2.55,2.16.72.72,0,0,0,.93-.17.55.55,0,0,0-.2-.82l0,0a6.14,6.14,0,0,1-2.37-9,7.91,7.91,0,0,1,9.38-2.49,7,7,0,0,0-3.57,4.54.59.59,0,0,0,.5.71.68.68,0,0,0,.8-.45v0c.71-3.12,4.13-5.14,7.64-4.51s5.78,3.67,5.07,6.78A5.86,5.86,0,0,1,497.68,220.31Z" transform="translate(-206.81 -10.47)"/><path class="cls-9" d="M496,203.54a.72.72,0,0,0-.92.22h0l-1.56,2.4a.56.56,0,0,0,.22.83.75.75,0,0,0,.94-.2v0l1.56-2.39A.57.57,0,0,0,496,203.54Z" transform="translate(-206.81 -10.47)"/><path class="cls-9" d="M487.76,205.56a.64.64,0,0,0,.67-.6h0v-2.77a.68.68,0,0,0-1.35,0V205A.64.64,0,0,0,487.76,205.56Z" transform="translate(-206.81 -10.47)"/><path class="cls-9" d="M476.49,211.09a.73.73,0,0,0,.92-.23.56.56,0,0,0-.24-.82l-2.7-1.38a.73.73,0,0,0-.93.21.57.57,0,0,0,.24.83h0Z" transform="translate(-206.81 -10.47)"/><path class="cls-9" d="M475.14,215.56H472a.64.64,0,0,0-.68.6.63.63,0,0,0,.67.61h3.13a.61.61,0,1,0,0-1.21Z" transform="translate(-206.81 -10.47)"/><path class="cls-9" d="M574,263.5l-1.35-2.06a3.82,3.82,0,0,0-4.88-1.16,3,3,0,0,0-1.31,4.34l1.34,2.06a1.49,1.49,0,0,0-.65,2.17L569.8,273a1.92,1.92,0,0,0,2.44.59l6.2-3.18a1.5,1.5,0,0,0,.65-2.17l-2.68-4.13A1.94,1.94,0,0,0,574,263.5Zm-6,.32a1.49,1.49,0,0,1,.65-2.17,1.92,1.92,0,0,1,2.45.58l1.34,2.07-3.1,1.59Zm3.37,8.36-2.68-4.13,6.19-3.17,2.68,4.12Z" transform="translate(-206.81 -10.47)"/><path class="cls-9" d="M574.06,254.39a9.7,9.7,0,0,0-9.69-2.3c-4.67,1.43-7.15,6-5.54,10.1h0a5.5,5.5,0,0,0-.79,8.39,7.32,7.32,0,0,0,8.47,1.32l.39-.2-.89-1.38-.4.2a5.25,5.25,0,0,1-6.71-1.61,4,4,0,0,1,1.08-5.51l.94-.7-.4-1c-1.3-3.32.69-6.94,4.43-8.09a7.77,7.77,0,0,1,7.75,1.84l.8.82,1.15-.36a5.11,5.11,0,0,1,6.3,2.63,4.16,4.16,0,0,1-2.16,5.26l-.4.2.9,1.37.39-.2a5.6,5.6,0,0,0,2.44-8.14A7.13,7.13,0,0,0,574.06,254.39Z" transform="translate(-206.81 -10.47)"/><path class="cls-9" d="M560.82,250.58a.56.56,0,0,0,.25-.82l-1.56-2.4a.73.73,0,0,0-.92-.23.56.56,0,0,0-.26.82h0l1.56,2.4A.73.73,0,0,0,560.82,250.58Z" transform="translate(-206.81 -10.47)"/><path class="cls-9" d="M575.07,247.13a.73.73,0,0,0-.92.22h0l-1.56,2.39a.56.56,0,0,0,.22.83.75.75,0,0,0,.94-.2v0l1.56-2.4A.57.57,0,0,0,575.07,247.13Z" transform="translate(-206.81 -10.47)"/><path class="cls-9" d="M566.87,249.16a.64.64,0,0,0,.67-.61h0v-2.76a.63.63,0,0,0-.68-.6.64.64,0,0,0-.67.59v2.77A.64.64,0,0,0,566.87,249.16Z" transform="translate(-206.81 -10.47)"/><path class="cls-9" d="M555.6,254.68a.72.72,0,0,0,.92-.23.56.56,0,0,0-.24-.82l-2.7-1.38a.73.73,0,0,0-.93.21.57.57,0,0,0,.24.83h0Z" transform="translate(-206.81 -10.47)"/><path class="cls-9" d="M554.25,259.16h-3.12a.6.6,0,1,0,0,1.2h3.13a.6.6,0,1,0,0-1.2Z" transform="translate(-206.81 -10.47)"/><path class="cls-10" d="M708.15,434.57a10.94,10.94,0,0,1-9.36.21l4-2.06-.89-1.38-6.2,3.18,3.58,5.5,1.55-.79-1.66-2.55a12.85,12.85,0,0,0,9.85-.74Z" transform="translate(-206.81 -10.47)"/><path class="cls-10" d="M718,425.86l-.89-1.37-1.63.83a6,6,0,0,0-1.35-1l.49-1.63-1.71-.4L712.4,424a5,5,0,0,0-1.7.24l-.94-1.45-1.55.8.94,1.44a5.44,5.44,0,0,0-1.08,1.2l-1.84-.44-.45,1.52,1.83.44a3.49,3.49,0,0,0,.26,1.51l-1.63.84.9,1.37,1.62-.83a6.37,6.37,0,0,0,1.35,1l-.49,1.62,1.71.41.49-1.63a4.79,4.79,0,0,0,1.71-.23l.94,1.44,1.55-.79-.94-1.44a5.67,5.67,0,0,0,1.08-1.2l1.83.44.46-1.52-1.83-.44a3.51,3.51,0,0,0-.27-1.51ZM713.45,430a2.82,2.82,0,0,1-3.66-.88,2.2,2.2,0,0,1,1-3.25,2.82,2.82,0,0,1,3.66.87A2.21,2.21,0,0,1,713.45,430Z" transform="translate(-206.81 -10.47)"/><path class="cls-10" d="M703.65,421.29l4-2.06c-4.84-2.2-10.73-.46-13.2,3.83a7.86,7.86,0,0,0,.24,8.31l-1.55.8c-3.22-5-1.32-11.25,4.25-14.11a12.89,12.89,0,0,1,9.85-.73l-1.66-2.55,1.55-.79,3.58,5.5-6.2,3.18Z" transform="translate(-206.81 -10.47)"/><path class="cls-10" d="M705.15,491.8l-.9-1.37-3.87,2a1.5,1.5,0,0,0-.66,2.17l7.16,11a1.91,1.91,0,0,0,2.44.58l12.39-6.36a1.49,1.49,0,0,0,.66-2.16l-4-6.19-1.55.79,4,6.19-12.39,6.35-7.16-11" transform="translate(-206.81 -10.47)"/><path class="cls-10" d="M715.21,486.64,709,489.82l-3.58-5.5,6.2-3.18Zm-11.32-1.53,3.58,5.5a1.91,1.91,0,0,0,2.44.58l6.2-3.17a1.5,1.5,0,0,0,.65-2.17l-3.58-5.5a1.91,1.91,0,0,0-2.44-.58l-6.19,3.17A1.5,1.5,0,0,0,703.89,485.11Z" transform="translate(-206.81 -10.47)"/><path class="cls-10" d="M711.7,494l1.79,2.75-3.1,1.58-1.79-2.75,3.1-1.58m-4.65,2.38,1.79,2.75a1.91,1.91,0,0,0,2.44.58l3.1-1.59a1.5,1.5,0,0,0,.66-2.17l-1.79-2.75a1.91,1.91,0,0,0-2.44-.58l-3.1,1.59A1.5,1.5,0,0,0,707.05,496.33Z" transform="translate(-206.81 -10.47)"/><path class="cls-10" d="M722.09,487.7l.9,1.37-1.55.8-.9-1.38,1.55-.79m-3.54.9,1.79,2.75a1,1,0,0,0,1.22.29l3.1-1.59A.74.74,0,0,0,725,489l-1.79-2.75a1,1,0,0,0-1.22-.29l-3.09,1.58A.75.75,0,0,0,718.55,488.6Z" transform="translate(-206.81 -10.47)"/><path class="cls-10" d="M725.58,562a3.28,3.28,0,0,0-1.31,1.19l-8-1.91,2.15-7.12a3.93,3.93,0,0,0,1.82-.42,3,3,0,0,0,1.31-4.33,3.85,3.85,0,0,0-4.89-1.17,3,3,0,0,0-1.31,4.34,3.47,3.47,0,0,0,1.34,1.17l-2.15,7.12-8-1.91a2.82,2.82,0,0,0-.46-1.61,3.85,3.85,0,0,0-4.89-1.17,3,3,0,0,0-1.31,4.34,3.83,3.83,0,0,0,4.89,1.16,3.28,3.28,0,0,0,1.31-1.19l8,1.91-2.15,7.12a4,4,0,0,0-1.82.42,3,3,0,0,0-1.3,4.34,3.84,3.84,0,0,0,4.88,1.16A3,3,0,0,0,715,571.1a3.3,3.3,0,0,0-1.34-1.16l2.15-7.13,8,1.91a2.9,2.9,0,0,0,.46,1.61,3.85,3.85,0,0,0,4.89,1.17,3,3,0,0,0,1.31-4.34A3.83,3.83,0,0,0,725.58,562Zm-8.05-12.38a1.92,1.92,0,0,1,2.45.58,1.5,1.5,0,0,1-.66,2.17,1.91,1.91,0,0,1-2.44-.58A1.5,1.5,0,0,1,717.53,549.62Zm-4.75,24.44a1.92,1.92,0,0,1-2.45-.58,1.5,1.5,0,0,1,.66-2.17,1.91,1.91,0,0,1,2.44.58A1.5,1.5,0,0,1,712.78,574.06Z" transform="translate(-206.81 -10.47)"/><path id="IBM_Security_Shield" data-name="IBM Security Shield" class="cls-10" d="M714,618l-6.62,8.88,6.29,9.67c3,4.56,9.52,6.12,14.65,3.49s6.89-8.46,3.93-13L726,617.3ZM731.51,634l-6.81.38,1,1.53,5-.28c-2.46,3.81-7.92,5.13-12.21,3a8.53,8.53,0,0,1-3.28-2.89l-5.74-8.83,5.51-7.39,10-.55,1.68,2.58-10,.55,1,1.53,10-.55,1.67,2.58-10,.55,1,1.53,10-.55.39.61a7.19,7.19,0,0,1,.92,2l-9.6.53,1,1.53,8.87-.49A7.05,7.05,0,0,1,731.51,634Z" transform="translate(-206.81 -10.47)"/><polygon class="cls-10" points="483.27 353.86 492.56 349.1 493.46 350.47 484.17 355.24 483.27 353.86"/><path class="cls-10" d="M685.18,358.86a2.17,2.17,0,0,0-.34-1,2.87,2.87,0,0,0-3.66-.87,2.25,2.25,0,0,0-1,3.26,2.89,2.89,0,0,0,3.67.87,2.63,2.63,0,0,0,.86-.72l3.31.79,1.16,1.78,1.55-.8-1.53-2.34Zm-2.22.87a1,1,0,0,1-1.22-.29.75.75,0,0,1,.33-1.08,1,1,0,0,1,1.22.29A.74.74,0,0,1,683,359.73Z" transform="translate(-206.81 -10.47)"/><path class="cls-10" d="M692.58,353.88a2.86,2.86,0,0,0-3.66-.88,2.24,2.24,0,0,0-1,3.25,2.8,2.8,0,0,0,2.81,1.16l2.32,3.56,1.55-.79-2.32-3.57A2.16,2.16,0,0,0,692.58,353.88Zm-1.87,1.88a1,1,0,0,1-1.22-.29.74.74,0,0,1,.32-1.08,1,1,0,0,1,1.22.29A.74.74,0,0,1,690.71,355.76Z" transform="translate(-206.81 -10.47)"/><path class="cls-10" d="M696.66,349a2.24,2.24,0,0,0-1,3.25,2.49,2.49,0,0,0,.81.77l-1.08,3.58,1.52,2.35,1.55-.8-1.15-1.78.89-2.94a2.87,2.87,0,0,0,1.12-.3,2.25,2.25,0,0,0,1-3.26A2.88,2.88,0,0,0,696.66,349Zm1.79,2.75a1,1,0,0,1-1.22-.29.74.74,0,0,1,.33-1.08,1,1,0,0,1,1.22.29A.75.75,0,0,1,698.45,351.79Z" transform="translate(-206.81 -10.47)"/><path class="cls-10" d="M693.42,366.29l-1.55.79,1.16,1.78-.89,2.95a2.75,2.75,0,0,0-1.13.3,2.24,2.24,0,0,0-1,3.25,2.88,2.88,0,0,0,3.66.88,2.25,2.25,0,0,0,1-3.26,2.56,2.56,0,0,0-.81-.76l1.08-3.58Zm-.62,8.57a1,1,0,0,1-1.22-.29.75.75,0,0,1,.33-1.09,1,1,0,0,1,1.22.3A.75.75,0,0,1,692.8,374.86Z" transform="translate(-206.81 -10.47)"/><path class="cls-10" d="M699.61,367.87l-2.32-3.57-1.55.8,2.32,3.56a2.2,2.2,0,0,0,.3,3.36,2.91,2.91,0,0,0,3.78-.26,2.2,2.2,0,0,0-.3-3.36A2.91,2.91,0,0,0,699.61,367.87Zm.93,3a1,1,0,0,1-1.22-.29.75.75,0,0,1,.33-1.09,1,1,0,0,1,1.22.3A.74.74,0,0,1,700.54,370.89Z" transform="translate(-206.81 -10.47)"/><path class="cls-10" d="M706.5,364.17a2.42,2.42,0,0,0-.86.72l-3.32-.79-1.15-1.78-1.55.79,1.52,2.35,4,1a2.15,2.15,0,0,0,.35,1,2.87,2.87,0,0,0,3.66.87,2.24,2.24,0,0,0,1-3.25A2.87,2.87,0,0,0,706.5,364.17Zm1.79,2.75a1,1,0,0,1-1.23-.29.76.76,0,0,1,.33-1.09,1,1,0,0,1,1.22.29A.75.75,0,0,1,708.29,366.92Z" transform="translate(-206.81 -10.47)"/><path class="cls-9" d="M604.69,335.16a6.23,6.23,0,0,0-7-2.09,8.77,8.77,0,0,0-11.37-.2,6.59,6.59,0,0,0-2,7.6,4.76,4.76,0,0,0-.93,6.47,5.69,5.69,0,0,0,3.34,2.22c-.62,2.57,1.22,5.09,4.1,5.65a6,6,0,0,0,4-.63l8.34-4.62A4.46,4.46,0,0,0,605,343a5,5,0,0,0-1.32-1.28A4.76,4.76,0,0,0,604.69,335.16Zm-2.42,13-8.34,4.63a3.85,3.85,0,0,1-4.92-1,2.93,2.93,0,0,1,.65-4.06l.45-.35-.2-.51a4.27,4.27,0,0,1,3-5.57,5.37,5.37,0,0,1,5.14,1.06l.42.38.55-.2a3.75,3.75,0,0,1,4.67,1.72A3,3,0,0,1,602.27,348.21Zm-.38-7.28,0,0a5.9,5.9,0,0,0-3,0,7.29,7.29,0,0,0-9.45.65,5.47,5.47,0,0,0-1.39,5.36,4.94,4.94,0,0,0-.59.71,4,4,0,0,1-2.5-1.57,3.33,3.33,0,0,1,1-4.76l.59-.38-.31-.59c-1.46-2.78-.1-6.09,3-7.38a6.78,6.78,0,0,1,7.51,1.54l.46.5.65-.3a4.27,4.27,0,0,1,5.42,1.52,3.36,3.36,0,0,1-1.44,4.68Z" transform="translate(-206.81 -10.47)"/></svg>